<svg xmlns="http://www.w3.org/2000/svg" viewBox="0 0 157 26">
  <path class="o-smt-logo__mnt-right" fill="#9B9B9B" d="M34.5 0L15.2 25.8h38.7L34.5 0zm-1.4 23.1H20.5l14-18.7 14 18.7H36.4L30 14.7l-1.7 2.2 4.8 6.2z"></path>
  <path class="o-smt-logo__mnt-left" fill="#7A7A7A" d="M19.5 0L0 25.8h12.3l2-2.7H5.4L19.5 4.4l6.1 8.1 1.7-2.2z"></path>
  <path class="o-smt-logo__title" d="M108.2 5.3h-3.8c-.2 0-.3.1-.4.3-1.2 2.8-2.5 5.6-3.7 8.4-.1.3-.3.6-.4.9-.1-.2-.1-.3-.2-.3-1.3-3-2.7-6-4-9-.1-.2-.2-.3-.5-.3h-3.7c-.3 0-.4.1-.4.4v12.5h2.7c.3 0 .4-.1.4-.4 0-1.1-.1-2.1-.1-3.2 0-1.8-.1-3.6-.1-5.4v-.3c.1.2.2.3.2.5 1.2 2.7 2.4 5.3 3.6 8 .1.2.2.3.5.3h2.8c.2 0 .3-.1.4-.3 1.2-2.7 2.4-5.3 3.6-8 .1-.1.1-.2.2-.4h.1c0 3-.1 6.1-.1 9.1h3.1V5.5c.1-.1 0-.2-.2-.2zm22.7 0h-3.8c-.2 0-.3.1-.4.2l-2.4 5.1c-.6 1.2-1.1 2.4-1.7 3.7-.1-.2-.1-.2-.2-.3-1.3-2.8-2.7-5.6-4-8.5-.1-.2-.2-.3-.5-.3h-3.8c-.3 0-.4.1-.4.4v11.8h2.7c.3 0 .4-.1.4-.4 0-1-.1-2-.1-3 0-1.6-.1-3.2-.1-4.8v-.5c.1.1.2.2.2.3l3.6 7.5c.1.2.2.3.4.3h2.8c.2 0 .3-.1.4-.3 1.1-2.2 2.1-4.4 3.2-6.7l.6-1.2h.1c0 2.9-.1 5.7-.1 8.6h3.1V5.4c.3-.1.2-.1 0-.1zm-64.5 6.4c-.4-.8-1.1-1.1-1.9-1.3-1.5-.5-3-.5-4.6-.6-.5 0-.9-.1-1.4-.2-.4-.1-.6-.3-.7-.7-.1-.4 0-.8.4-1 .4-.2.7-.4 1.1-.4 1.6-.3 3.3-.1 4.9.2.8.1 1.5.3 2.2.5V6c0-.4-.1-.5-.4-.6-1-.3-2-.5-3-.6-1.7-.2-3.4-.2-5.1.2-2.2.5-3.3 1.7-3.3 4 0 1 .3 1.9 1.2 2.4.4.3.9.5 1.4.6 1.2.2 2.5.3 3.8.5.7.1 1.4.2 2 .3.6.2.8.9.3 1.4-.2.2-.4.3-.6.4-.4.1-.8.2-1.2.2-1.6.2-3.1 0-4.7-.3-.7-.1-1.3-.3-2-.5v1.9c0 .8 0 .8.8 1 1.8.5 3.6.7 5.4.6 1.1 0 2.1-.1 3.1-.4 1.2-.4 2.2-1 2.5-2.4.1-.6.1-1.2.1-1.8 0-.4-.1-.8-.3-1.2zm18.9-6.4h-2.4c-.3 0-.4.1-.4.4V14c0 .2 0 .3-.2.4-1.6.7-3.3 1-5 .8-1.5-.2-2-.9-2-2.4V5.6c0-.3-.1-.4-.4-.4h-2.5c-.3 0-.4.1-.4.4v7.2c0 .6 0 1.1.1 1.7.2 1.5 1.1 2.6 2.5 3.1 2.1.7 4.2.6 6.3-.1.5-.2 1-.4 1.5-.7v1h2.9c.1 0 .2-.2.2-.3v-12c.2-.1.1-.2-.2-.2zm71.7.4c0-.3-.1-.4-.4-.4h-11.4c-.3 0-.4.1-.4.4V8h4.5v9.5h3.1V7.9h4.5c.1-.7.1-1.5.1-2.2zm-18.5-.4h-2.4c-.3 0-.4.1-.4.4v11.7h3V5.6c.1-.2 0-.3-.2-.3z" fill="#7A7A7A"></path>
  <path fill="none" d="M128.2 23.3c-.5 0-.9.4-.9 1s.4 1 .9 1 .9-.4.9-1-.4-1-.9-1zm-64.7 1.1l-.2.5h.8l-.2-.5c-.1-.2-.2-.5-.2-.5s-.1.3-.2.5zm73.3-1.1h-.4v.9h.4c.3 0 .5-.1.5-.5.1-.3-.1-.4-.5-.4zm-56.1 0h-.5v.9h.5c.3 0 .5-.1.5-.5 0-.3-.2-.4-.5-.4zm-3.6 1.1l-.2.5h.8l-.2-.5c-.1-.2-.2-.5-.2-.5s-.1.3-.2.5zm24.1-1.1h-.5v.9h.5c.3 0 .5-.1.5-.5 0-.3-.2-.4-.5-.4zm38.9 1.1l-.2.5h.8l-.2-.5c-.1-.2-.2-.5-.2-.5s-.1.3-.2.5z"></path>
  <path class="o-smt-logo__tagline" fill="#7A7A7A" d="M67.7 24v.5s-.2-.3-.3-.4L66 22.8v3h.5v-1.7s.2.3.3.4l1.4 1.4h.1v-3h-.5V24zm5 .5h1.4V24h-1.4v-.7h1.6v-.5h-2.2v3h2.2v-.6h-1.6zm10.7-1.2h.9v2.5h.6v-2.5h.8v-.5h-2.3zm5.5.7h-1.1v-1.2h-.6v3h.6v-1.2h1.1v1.2h.6v-3h-.6zm5 0l-.2-.1c-.3-.1-.4-.2-.4-.4 0-.1.1-.3.3-.3.2 0 .3.1.4.3l.5-.3c-.2-.4-.5-.5-.9-.5-.6 0-1 .3-1 .8s.3.7.8.9l.2.1c.3.1.5.2.5.4s-.2.3-.4.3c-.3 0-.5-.2-.6-.4l-.5.3c.2.4.6.6 1.2.6s1.1-.3 1.1-.8c-.1-.5-.4-.7-1-.9zm3.1.5h1.3V24H97v-.7h1.5v-.5h-2.2v3h2.3v-.6H97zm8-.6c-.1.3-.2.7-.3.7 0 0-.1-.4-.3-.7l-.6-1.2h-.7l1.5 3h.1l1.5-3h-.7l-.5 1.2zm2.7-1.1h.8v3h-.8zm3.2 2.4c-.6 0-1-.4-1-1s.4-1 1-1c.4 0 .6.2.8.4l.5-.3c-.3-.4-.7-.6-1.3-.6-.9 0-1.7.6-1.7 1.5s.7 1.5 1.7 1.5c.6 0 1.1-.3 1.4-.7l-.5-.3c-.3.4-.5.5-.9.5zm3.6-.7h1.3V24h-1.3v-.7h1.5v-.5h-2.2v3h2.2v-.6h-1.5zm3.7-.5l-.2-.1c-.3-.1-.4-.2-.4-.4 0-.1.1-.3.3-.3.2 0 .3.1.4.3l.5-.3c-.2-.4-.5-.5-.9-.5-.6 0-1 .3-1 .8s.3.7.8.9l.2.1c.3.1.5.2.5.4s-.2.3-.4.3c-.3 0-.5-.2-.6-.4l-.5.3c.2.4.6.6 1.2.6s1.1-.3 1.1-.8c-.1-.5-.4-.7-1-.9zm5.6 1.2c-.6 0-1-.4-1-1s.4-1 1-1c.4 0 .6.2.8.4l.5-.3c-.3-.4-.7-.6-1.3-.6-.9 0-1.7.6-1.7 1.5s.7 1.5 1.7 1.5c.6 0 1.1-.3 1.4-.7l-.5-.3c-.3.4-.5.5-.9.5zm8.9-.8l-1.5-1.6v3h.6v-1.6s.2.3.3.4l.6.7h.1l.6-.7c.1-.2.3-.4.3-.4v1.6h.6v-3h-.1l-1.5 1.6zm11.6-.4v.5s-.2-.3-.3-.4l-1.4-1.4h-.1v3h.5V24s.2.3.3.4l1.4 1.4h.1v-3h-.5V24zm4.4-1.2l-.5.8-.3.6-.3-.6-.5-.8h-.8l1.2 1.9v1.1h.7v-1.2l1.1-1.9h-.6zm-85 0l-1.5 3h.7l.2-.4h1.3l.2.4h.7l-1.6-3zm.4 2.1h-.8l.2-.5c.1-.2.2-.5.2-.5s.1.3.2.5l.2.5zm13.2-2.1l-1.5 3h.7l.2-.4H78l.2.4h.7l-1.6-3zm.4 2.1h-.8l.2-.5c.1-.2.2-.5.2-.5s.1.3.2.5l.2.5zm4.1-1.1c0-.7-.5-1-1.1-1h-1.1v3h.6v-1.1h.4l.6 1.1h.7l-.7-1.1c.4-.2.6-.5.6-.9zm-1.1.4h-.5v-.9h.5c.3 0 .5.1.5.5 0 .3-.2.4-.5.4zm21.6-.4c0-.7-.5-1-1.1-1h-1.1v3h.6v-1.1h.4l.6 1.1h.7l-.7-1.1c.4-.2.6-.5.6-.9zm-1.1.4h-.5v-.9h.5c.3 0 .5.1.5.5 0 .3-.2.4-.5.4zm27-1.4c-.8 0-1.5.6-1.5 1.5s.7 1.5 1.5 1.5 1.5-.6 1.5-1.5-.7-1.5-1.5-1.5zm0 2.4c-.5 0-.9-.4-.9-1s.4-1 .9-1 .9.4.9 1-.4 1-.9 1zm8.7-2.4h-1.1v3h.6v-1h.5c.6 0 1.2-.3 1.2-1-.1-.7-.6-1-1.2-1zm-.1 1.4h-.4v-.9h.4c.3 0 .5.1.5.5.1.3-.1.4-.5.4zm3.5-1.4l-1.5 3h.7l.2-.4h1.3l.2.4h.7l-1.6-3zm.4 2.1h-.8l.2-.5c.1-.2.2-.5.2-.5s.1.3.2.5l.2.5z"></path>
</svg>