<svg id="a8b91bee-10a6-4722-b456-de4c32f3cde0" data-name="Layer 1" xmlns="http://www.w3.org/2000/svg" viewBox="0 0 279.866 381.179">
  <defs>
    <style>
      .bb832da2-1559-419b-b4d3-84de08b6401c {
        fill: #869ab8;
        stroke: #869ab8;
      }

      .b0bd0c3f-2013-42c7-821e-a50dbaa3ecc8, .b2ddff46-d02b-4329-81c4-df77cba52460, .bb832da2-1559-419b-b4d3-84de08b6401c {
        stroke-miterlimit: 10;
      }

      .bac86586-98d5-4a40-aa0c-e19859fb539c, .bc940649-a49a-49a3-92d0-34c133f7a4cc {
        fill: #f05042;
      }

      .bac86586-98d5-4a40-aa0c-e19859fb539c {
        font-size: 12px;
        font-family: CenturyGothic, Century Gothic;
      }

      .b0bd0c3f-2013-42c7-821e-a50dbaa3ecc8, .b2ddff46-d02b-4329-81c4-df77cba52460 {
        fill: none;
      }

      .b0bd0c3f-2013-42c7-821e-a50dbaa3ecc8 {
        stroke: #f05142;
      }

      .b2ddff46-d02b-4329-81c4-df77cba52460 {
        stroke: #f05042;
      }
    </style>
  </defs>
  <path class="bb832da2-1559-419b-b4d3-84de08b6401c" d="M278.162,249.358a1.627,1.627,0,0,0-1.927-1.225c-.109.016-.218.047-.327.059a3.229,3.229,0,0,1-1.781-.323,7.5,7.5,0,0,1-2.463-1.7,9.288,9.288,0,0,0-2.79-2.353,13.159,13.159,0,0,1-1.38-.956,3.35,3.35,0,0,0-2.528-.627c-.274.039-.561.028-.826.09a2.188,2.188,0,0,1-1.922-.1.427.427,0,0,0-.324-.035c-.6.2-1.084-.148-1.584-.381-.455-.21-.891-.471-1.348-.681a.91.91,0,0,0-.95.058,1.731,1.731,0,0,1-1.586.179.923.923,0,0,1-.639-.482c-.179-.342-.373-.68-.567-1.015a1.906,1.906,0,0,0-1.3-.988,2.552,2.552,0,0,1-1.209-.548,2.8,2.8,0,0,0-.753-.354,21.51,21.51,0,0,1-3.1-1.276.585.585,0,0,0-.319-.1c-.6.074-1.215.136-1.807.261a.754.754,0,0,0-.464.4c-.125.288-.129.63-.232.934-.044.136-.2.237-.313.342a.175.175,0,0,1-.16.015.2.2,0,0,1-.108-.12,2.318,2.318,0,0,1,.263-1.237,3.212,3.212,0,0,0,.235-.755c.067-.509-.159-.789-.657-1a3.346,3.346,0,0,0-1.14-.264,2.181,2.181,0,0,1-1.342-.658c-.164-.151-.318-.315-.483-.47a1.75,1.75,0,0,1-.546-1.774,12.126,12.126,0,0,0,.27-1.26,1.137,1.137,0,0,0-.192-.6,1.035,1.035,0,0,0-.36-.354,4.657,4.657,0,0,1-1.841-2.52,12.509,12.509,0,0,1-.531-1.906,7.128,7.128,0,0,0-.679-1.688c-.053-.112-.273-.159-.412-.241s-.331-.155-.4-.276a3.6,3.6,0,0,0-1.087-1.046,6.92,6.92,0,0,1-1.54-1.326,1.867,1.867,0,0,0-.985-.646,13.907,13.907,0,0,1-2.086-.707,4.543,4.543,0,0,0-2.464-.475,8.825,8.825,0,0,0-2.169.136c-.7.214-1.432-.284-2.158-.152-.054.012-.111,0-.168.012a.931.931,0,0,1-.877-.377c-.406-.467-.883-.883-1.327-1.323a2.079,2.079,0,0,0-1.2-.595c-.486-.073-.587-.19-.555-.661a1.832,1.832,0,0,0-.715-1.6c-.387-.335-.73-.727-1.144-1.023a6.317,6.317,0,0,0-1.074-.513,1.105,1.105,0,0,1-.152-.082,4.511,4.511,0,0,0-1.122-.762,6.782,6.782,0,0,0-1.5-.082c-.521-.039-.645-.229-.523-.77.07-.311.172-.618.247-.929a.767.767,0,0,0-.521-.922,9.362,9.362,0,0,1-1.442-.5c-.4-.222-.723-.572-1.221-.331a.183.183,0,0,1-.164-.015c-.313-.323-.627-.642-.918-.98-.038-.043.027-.21.09-.276.141-.152.331-.269.462-.424.04-.047-.011-.238-.076-.28a.989.989,0,0,0-.468-.16,12.712,12.712,0,0,0-2.514.183.34.34,0,0,1-.387-.257c-.037-.159-.033-.322-.075-.482a.472.472,0,0,0-.8-.167c-.055.047-.075.226-.033.26a4.816,4.816,0,0,1,.541.409c.081.1.085.4.013.439a8.761,8.761,0,0,1-2.233,1.3,1.532,1.532,0,0,1-.817-.019,6.352,6.352,0,0,1-2-.98,2.17,2.17,0,0,0-1.627-.358,10.152,10.152,0,0,0-1.645.28,2.524,2.524,0,0,1-.826.1,1.2,1.2,0,0,1-1.4-1.136c-.031-.159-.044-.326-.085-.486a.788.788,0,0,0-.424-.5,4.72,4.72,0,0,0-.943-.4,9.28,9.28,0,0,0-1.19-.121.868.868,0,0,1-.776-.575c-.124-.307-.186-.638-.338-.934a.551.551,0,0,0-.436-.179.47.47,0,0,0-.351.277,3.517,3.517,0,0,0-.052.8,1.084,1.084,0,0,1-1,1.241,2.8,2.8,0,0,0-1.338.575,2.831,2.831,0,0,1-.416.253.521.521,0,0,1-.734-.159,9.248,9.248,0,0,1-.449-.9.574.574,0,0,1,.237-.7,11.779,11.779,0,0,0,1.34-.906c.372-.319.249-.793-.313-1.034a1.113,1.113,0,0,0-.985-.02,5.283,5.283,0,0,0-1.076.7c-.866.813-1.964,1.334-2.876,2.085a.851.851,0,0,1-.812.054,1.143,1.143,0,0,0-1.346.358.744.744,0,0,1-.905.167.953.953,0,0,0-1.055.292,4.317,4.317,0,0,0-1.369,2.979c0,.109-.013.218-.009.327a.869.869,0,0,1-.517.914,2.057,2.057,0,0,0-.855.711,3.617,3.617,0,0,1-.664.685,2.349,2.349,0,0,0-.916,1.272c-.03.139-.292.151-.426.019-.578-.556-1.159-1.112-1.722-1.684a2.742,2.742,0,0,0-2.088-1.031,3.912,3.912,0,0,1-.824-.2,10.094,10.094,0,0,0-1.011-.167,1.322,1.322,0,0,0-.941.249,4.724,4.724,0,0,1-1.064.712,7.518,7.518,0,0,0-1.461.7,1.648,1.648,0,0,1-1.747.129,1.127,1.127,0,0,0-.5-.051,1.263,1.263,0,0,1-1.111-.692,4.1,4.1,0,0,0-.672-.968,16.658,16.658,0,0,1-2.117-2.276,2.942,2.942,0,0,1-.854-2.882,4.922,4.922,0,0,0,.056-.964,14.015,14.015,0,0,1,.222-2.085,9,9,0,0,0,.216-1.583,3.169,3.169,0,0,1,.579-1.966,1.321,1.321,0,0,0,.175-1.387,2.09,2.09,0,0,1-.057-1.116.626.626,0,0,0-.363-.7c-.318-.144-.636-.29-.951-.444-.375-.182-.278-.591-.491-.851a.629.629,0,0,0-.264-.216,7.17,7.17,0,0,0-1.831-.474c-.74-.01-1.481-.051-2.218-.031a2.988,2.988,0,0,0-.965.219,4.921,4.921,0,0,1-2.5.222,6.046,6.046,0,0,0-2.037-.073,4.891,4.891,0,0,1-1.189-.048c-.185-.013-.375-.373-.27-.522a7.692,7.692,0,0,1,.673-.882,2.066,2.066,0,0,0,.638-1.591,18.034,18.034,0,0,1,.348-2.713,1,1,0,0,1,.466-.8,1.233,1.233,0,0,0,.561-.749,7.315,7.315,0,0,0,.438-1.864,8.53,8.53,0,0,1,.539-2.328.787.787,0,0,1,.8-.649c.492-.049.578-.129.521-.432a2.011,2.011,0,0,1,.311-1.536,1.092,1.092,0,0,0,.047-.947.648.648,0,0,0-.48-.455,1.834,1.834,0,0,0-.68-.066,6.357,6.357,0,0,1-1.874.012,3.117,3.117,0,0,0-1.986.251,3.444,3.444,0,0,1-.814.164c-3.057.759-2.689.273-3.34,3.145a4.42,4.42,0,0,1-.4,1.2c-.2.371-.367.767-.575,1.135a1.639,1.639,0,0,1-.477.624,2.039,2.039,0,0,0-.886,1.274,1.544,1.544,0,0,1-.245.4.657.657,0,0,1-.611.174c-.265-.123-.524-.259-.778-.4a1.008,1.008,0,0,0-.981-.048c-.295.141-.555.406-.867.435a7.848,7.848,0,0,0-2.68.824,1.311,1.311,0,0,1-1.7-.376,4.382,4.382,0,0,0-.667-.571,2.019,2.019,0,0,0-1.127-.439c-.229-.012-.458-.007-.688-.03a.846.846,0,0,1-.772-.587,23.017,23.017,0,0,0-2.3-4.743c-.638-.94-.693-2.011-1.221-2.96a8.1,8.1,0,0,1-.016-3.071c.133-.4.184-.836.286-1.251a1.7,1.7,0,0,0,0-.96,2.333,2.333,0,0,1-.012-.642,18.226,18.226,0,0,1,.454-2.843,1.583,1.583,0,0,1,.652-1.221,1.621,1.621,0,0,0,.627-1.563,5.971,5.971,0,0,0-.1-.816,6.6,6.6,0,0,1,1.04-4.44,2.128,2.128,0,0,1,.882-.9,6.076,6.076,0,0,0,1.065-.964c.113-.1.287-.23.42-.208a3.432,3.432,0,0,0,2.216-.641,3.15,3.15,0,0,0,1.652-1.49c.16-.384.3-.658.815-.584a2.028,2.028,0,0,0,1.153-.228,3.223,3.223,0,0,1,2.989.045,1.744,1.744,0,0,0,1.809-.034c.278-.17.486-.093.781.041a2.885,2.885,0,0,1,1.132.806,1.314,1.314,0,0,0,.915.5,2.436,2.436,0,0,0,1.789-.319.655.655,0,0,1,1-.027c.187.143.361.3.553.437a.565.565,0,0,0,.636,0c.164-.114.129-.383-.093-.567-.135-.111-.3-.186-.437-.3a.492.492,0,0,1-.167-.6c.11-.239.266-.457.37-.7a.333.333,0,0,0-.091-.277.717.717,0,0,0-.3-.167c-.338-.106-.682-.188-1.014-.308a.335.335,0,0,1-.13-.267.309.309,0,0,1,.176-.221.447.447,0,0,1,.331-.014,2.08,2.08,0,0,0,1.986.005,2.736,2.736,0,0,1,1-.147,3.423,3.423,0,0,0,.855-.007,1.014,1.014,0,0,1,1.26.161.406.406,0,0,0,.324.055,5.656,5.656,0,0,0,.952-.317,1.424,1.424,0,0,1,1-.087,1.9,1.9,0,0,0,.676.021.98.98,0,0,1,.805.242.94.94,0,0,0,.456.245,1.349,1.349,0,0,1,1.2.876,4.35,4.35,0,0,0,.239.453.675.675,0,0,0,.764.267,3.569,3.569,0,0,0,1.233-.5,7.746,7.746,0,0,1,.836-.52.73.73,0,0,1,.8.172,10.072,10.072,0,0,1,.559.863,5.183,5.183,0,0,0,1.145,1.508,1.194,1.194,0,0,1,.423,1.207,8.286,8.286,0,0,1-.333,1.238,1.022,1.022,0,0,0,.16,1.079.552.552,0,0,1,.045.624c-.349.665.078,1.259.315,1.874.644.458.659,1.168.918,1.778a2.854,2.854,0,0,0,.4.92,10,10,0,0,1,1.376,1.969.682.682,0,0,0,.578.318,1.263,1.263,0,0,0,1.368-.717,9.893,9.893,0,0,0,.782-2.769,4.888,4.888,0,0,0-.112-2.256,11.038,11.038,0,0,1-.6-3.9,3.674,3.674,0,0,0-.24-1.124,8.179,8.179,0,0,1-.353-1.1c-.134-1.087-.3-2.171-.335-3.263a3.516,3.516,0,0,1,.384-1.7,14.644,14.644,0,0,1,1.949-2.93,2.493,2.493,0,0,1,1.3-.939,2.146,2.146,0,0,0,1.111-.672,2.228,2.228,0,0,1,.5-.42,7.584,7.584,0,0,0,2.035-1.851,2.072,2.072,0,0,1,1.766-1.074c.2.008.4-.182.6-.269a5.213,5.213,0,0,0,1.6-1.379,2.579,2.579,0,0,1,1.92-.87,1.967,1.967,0,0,0,.345-.031.71.71,0,0,0,.585-.685c-.009-.216-.071-.433-.08-.65a.564.564,0,0,1,.47-.58.737.737,0,0,1,.175,0,1.584,1.584,0,0,0,1.329-.591c.358-.346.387-.493.007-.982-.194-.248-.374-.466-.1-.7.565-.485.431-1.178.518-1.8a.588.588,0,0,0-.1-.313,3.07,3.07,0,0,0-.285-.429.764.764,0,0,1,0-1.048c.128-.17.193-.383.321-.552a.114.114,0,0,1,.023-.02l.008,0,.021-.012.01,0,.026-.008.008,0c.056-.015.125-.022.183-.036h0l0-.006a.209.209,0,0,0-.017-.028l.031-.017a3.511,3.511,0,0,1-.114-1.576c.034-.13.173-.3.294-.317a.773.773,0,0,1,.446.21.627.627,0,0,1,.214.6,1.411,1.411,0,0,1-.84,1.084l.009.046-.019,0c.025.041.049.081.071.119l.017.027c.019.031.036.059.054.086l.015.026.046.07.015.022.043.059.012.014c.015.018.027.035.041.05l.009.008a.246.246,0,0,0,.041.039l.006,0a.287.287,0,0,0,.043.028l0,0c.142.068.286-.059.6-.346.4-.371.665-.855,1.048-1.229a4.063,4.063,0,0,0,1.085-3.1c0-.053.007-.107.01-.162.011-.184.153-.244.358-.149.641.3.72.3,1.025-.008a3.569,3.569,0,0,1,.557-.592,6.074,6.074,0,0,0,1.683-2.152,2.093,2.093,0,0,0,.282-.908c.034-.3.1-.49.455-.548,1.084-.177,2.158-.386,3.239-.565a1,1,0,0,0,.755-.577.28.28,0,0,1,.037-.05l.006-.006c.013-.015.03-.029.045-.044l.013-.009.046-.036c.023-.015.045-.033.067-.048l-.026.018a.4.4,0,0,1-.019-.043l-.937-.028c-.4-.011-.535-.08-.489-.24.057-.19.219-.208.389-.225.112-.012.234,0,.345-.018.462-.083.56.23.692.511h.072a4.165,4.165,0,0,0,.348-.478h0c.01-.013.022-.025.033-.037l.01-.007c.009-.01.022-.019.032-.028l.013-.011.036-.022a.126.126,0,0,1,.017-.011l.041-.018.018-.008a.434.434,0,0,1,.064-.02,4.322,4.322,0,0,0,1.655-.8c.639-.008,1.28-.016,1.917-.027q.351-.008.7-.037c.189-.017.35-.392.21-.516a2.762,2.762,0,0,1-.93-1.582.927.927,0,0,1-.028-.48,5.937,5.937,0,0,1,1.5-2.625,4.153,4.153,0,0,0,1.079-1.22.947.947,0,0,1,.653-.476,3.954,3.954,0,0,0,.482-.173,1.655,1.655,0,0,1,.476-.172,1.974,1.974,0,0,0,1.579-.847.933.933,0,0,1,.873-.438,3.2,3.2,0,0,0,1.824-.395c.316-.128.643-.236.971-.337a2.164,2.164,0,0,0,1.539-1.169.555.555,0,0,1,.533-.344,2.931,2.931,0,0,0,1.361-.254c.428-.22.938-.089,1.367-.218a10.749,10.749,0,0,0,1.377-.643.657.657,0,0,1,.637.206c.132.146.028.436-.2.541a3.164,3.164,0,0,1-.474.2,5.558,5.558,0,0,0-2.219,1.457,8.853,8.853,0,0,0-1.205,1.327,1.006,1.006,0,0,0,.069,1.361c.7.85.63.978,1.639.427a8.772,8.772,0,0,0,2.716-2.143c.353-.437.747-.83,1.469-.5a.479.479,0,0,0,.328-.03,19.081,19.081,0,0,0,3.053-1.139c.859-.171,1.456-.855,2.383-.909a.849.849,0,0,0,.564-.328,1.923,1.923,0,0,1,1.892-.9,1.18,1.18,0,0,0,.933-.368c.24-.228.486-.452.719-.686a.536.536,0,0,0,.009-.748,1.159,1.159,0,0,1-.4-1.46,1.7,1.7,0,0,0,.018-.633c-.02-.247-.454-.456-.7-.348-.1.045-.243.067-.3.143-.868,1.115-2.019,2.037-2.562,3.368a.479.479,0,0,1-.428.181,4.4,4.4,0,0,0-1.588-.125c-.349.016-.707-.038-1.058-.026a2.176,2.176,0,0,1-1.88-.806,2.4,2.4,0,0,0-.847-.618.951.951,0,0,1-.54-.817c-.053-.653-.129-1.3-.168-1.958a.805.805,0,0,1,.16-.438,3.445,3.445,0,0,1,.413-.509.763.763,0,0,0,.1-1.031c-.213-.375-.1-.6.265-.808.444-.249.9-.48,1.352-.721a1.162,1.162,0,0,0,.686-.87,1.287,1.287,0,0,1,.1-.307c.393-.948-.2-1.218-.922-1.445a4.906,4.906,0,0,0-.879-.157,7.97,7.97,0,0,0-3.3.392c-.772.238-1.5.573-2.279.8a5.981,5.981,0,0,0-1.789.6c-.548.388-1.312.464-1.746,1-.073.093-.439-.02-.455-.133s-.035-.248.026-.3a8.732,8.732,0,0,1,4.177-2.426,2.329,2.329,0,0,0,1.724-1.23,2.952,2.952,0,0,1,1.013-1.065,1.692,1.692,0,0,1,.605-.293,12.948,12.948,0,0,1,3.324-.374c1.784.1,3.561.055,5.341.057a3.584,3.584,0,0,1,1.413.171,3.488,3.488,0,0,0,2.1.08,6.83,6.83,0,0,1,1.576-.161,2.285,2.285,0,0,0,1.325-.343c.431-.265.883-.51,1.3-.8.51-.351,1.011-.719,1.486-1.108a3.973,3.973,0,0,1,2.281-1.031,3.518,3.518,0,0,0,.828-.26,1.8,1.8,0,0,1,1.051.048c.237.059.4.328.308.5-.16.283-.312.572-.5.841a1.181,1.181,0,0,1-.437.471,4.255,4.255,0,0,0-1.8,1.686,18.82,18.82,0,0,1-1.215,1.738,1.928,1.928,0,0,0-.67,1.07.757.757,0,0,1-.342.526c-.694.391-1.145,1.058-1.917,1.36a.4.4,0,0,0-.231.541.8.8,0,0,1-.417.969c-.235.155-.491.282-.718.445a.842.842,0,0,0-.172,1.046c.145.318.472.306.761.325a2.306,2.306,0,0,0,.706-.023,7.177,7.177,0,0,1,2.824-.009,6.317,6.317,0,0,0,2.641-.045,1.088,1.088,0,0,1,.973.32c.272.219.289.47.012.687-.219.172-.466.315-.673.5-.062.056-.047.2-.044.3,0,.209.195.271.363.307a1.044,1.044,0,0,0,.519.016,2.8,2.8,0,0,0,1.3-.755,5.713,5.713,0,0,1,2.091-1.389c.035-.016.209.112.219.182a.749.749,0,0,1-.042.467c-.224.371-.5.717-.741,1.078a.411.411,0,0,0,.149.574,3.12,3.12,0,0,1,.921.5.741.741,0,0,0,.817.13c.916-.294.971-.324,1.378-1.087.787-1.478.8-1.48.335-3.248a1.381,1.381,0,0,1,.053-.948,2.333,2.333,0,0,0,.11-.3.329.329,0,0,0-.341-.44,4.774,4.774,0,0,1-.7.029.61.61,0,0,1-.416-.229.557.557,0,0,1,.064-.448,3.158,3.158,0,0,1,.416-.507,2.556,2.556,0,0,0,.336-.358.783.783,0,0,0-.6-1.143,2.442,2.442,0,0,0-1.541.185,1.392,1.392,0,0,1-1.637-.242.536.536,0,0,1-.244-.577,1.593,1.593,0,0,0,.133-.464.59.59,0,0,0-.209-.415,3.905,3.905,0,0,0-.66-.266c-.5-.214-.57-.377-.338-.731a4.492,4.492,0,0,1,1.359-1.433,1.073,1.073,0,0,0,.5-.618,1.9,1.9,0,0,1,.768-1.207c.137-.112.066-.266-.16-.375-.267-.129-.546-.239-.8-.382-.133-.072-.131-.19-.022-.264.235-.153.489-.285.712-.453a1.635,1.635,0,0,0,.758-1.381,2.961,2.961,0,0,0,.03-.323,2.145,2.145,0,0,1,.526-1.814c.293-.334.137-.707-.123-1.057a2.446,2.446,0,0,0-1.351-.8c-.319-.1-.541-.261-.585-.563a1.982,1.982,0,0,0-.527-.857.43.43,0,0,1,.049-.591c.071-.081.194-.122.274-.2.344-.318.35-.537-.042-.777-.468-.286-.86-.856-1.555-.5a3.171,3.171,0,0,1-.613-.319,2.1,2.1,0,0,0-1.284-.566,2.768,2.768,0,0,1-.686-.194c-.424-.139-.776-.353-.787-.809a1.969,1.969,0,0,0-.784-1.447q-.8-.692-1.586-1.393a.457.457,0,0,1,.025-.593,1.589,1.589,0,0,1,1.114-.413.581.581,0,0,0,.567-.524c.1-.48.18-.956-.352-1.349a.563.563,0,0,1-.169-.746,6.259,6.259,0,0,0,.351-.73.477.477,0,0,0-.108-.436,1.465,1.465,0,0,1-.611-.984,2.8,2.8,0,0,1-.16-1.287,1.431,1.431,0,0,0-.315-1.247,2.641,2.641,0,0,1-.614-1.37,16.594,16.594,0,0,0-.751-2.531c-.027-.127-.333-.224-.454-.154a2.1,2.1,0,0,0-.424.267,5.409,5.409,0,0,1-1.372,1.218c-.228.11-.213.355-.269.562a1.073,1.073,0,0,1-.3.552,2.007,2.007,0,0,0-.73.874,1.1,1.1,0,0,1-.708.665,8.709,8.709,0,0,0-1.6.664c-.715.481-1.572.71-2.31,1.135a.573.573,0,0,1-.791-.125,3.813,3.813,0,0,1-.682-.783,1.416,1.416,0,0,0-1.2-.9.364.364,0,0,1-.3-.377,3.9,3.9,0,0,1,.249-2.072,14.819,14.819,0,0,0,.578-1.5,2.912,2.912,0,0,1,1.192-1.716.16.16,0,0,0,.072-.136,1.947,1.947,0,0,0-.114-.452c-.056-.129-.168-.126-.3-.057a.822.822,0,0,1-.992-.076,1.7,1.7,0,0,0-1.009-.361,2.244,2.244,0,0,1-.712-.109.975.975,0,0,1-.508-.444c-.12-.361-.025-.792-.21-1.113a5.759,5.759,0,0,0-.959-1,.381.381,0,0,1-.075-.152c-.17-.529-.653-.789-1.125-1.064A1.4,1.4,0,0,0,218,56.518c-.347.081-.687.177-1.023.284a3.979,3.979,0,0,1-1.413.161,5.609,5.609,0,0,1-2.453-.48,4.4,4.4,0,0,0-.7-.223c-1.128-.367-1.96.227-2.866.57-.1.036-.162.15-.226.239a1.809,1.809,0,0,0-.413,1.52,1.566,1.566,0,0,1-.671,1.717c-.178.137-.326.3-.493.451a.652.652,0,0,0-.216.732,1.1,1.1,0,0,1-.083.944,1.023,1.023,0,0,0-.079.789,1.478,1.478,0,0,1-.807,1.647,5.176,5.176,0,0,0-.953.679,6.869,6.869,0,0,1-1.9,1.608.927.927,0,0,0-.432.836,1.607,1.607,0,0,0,.458,1.229c.274.3.6.568.878.865a1.628,1.628,0,0,1,.432.905,5.569,5.569,0,0,1-.878,3.876,6.457,6.457,0,0,1-2.242,2.38,3.279,3.279,0,0,0-.405.3,13.6,13.6,0,0,1-4.482,2.376,13.225,13.225,0,0,1-1.3.466c-.728.166-.852.637-.815,1.224a1.461,1.461,0,0,0,.024.326,4.159,4.159,0,0,1-.259,2.7,5.325,5.325,0,0,0-.48,2.524,1.263,1.263,0,0,1-.418,1.167,4.687,4.687,0,0,0-1.336,1.624c-.051.135-.271.167-.465.1a.854.854,0,0,0-.834.1c-.312.231-.616.469-.936.689a.852.852,0,0,1-.947-.284,1.023,1.023,0,0,1-.119-.312,2.227,2.227,0,0,0-.876-1.6,1.179,1.179,0,0,1-.432-.891,2.077,2.077,0,0,0-.267-.955c-.026-.045-.006-.107-.015-.161-.024-.14.175-.344.316-.308.58.149,1.157.309,1.738.455a.544.544,0,0,0,.688-.525,2.4,2.4,0,0,0-.019-.327c-.087-.555-.321-.747-.937-.808a7.348,7.348,0,0,1-.882-.138.5.5,0,0,1-.363-.522c.116-.521.261-1.039.352-1.566a3.656,3.656,0,0,1,1.012-2.16,1.519,1.519,0,0,0,.353-.706.706.706,0,0,0-.6-.882,5.332,5.332,0,0,0-1.245-.159,8.245,8.245,0,0,1-1.613-.091,6.533,6.533,0,0,0-1.249-.053,1.159,1.159,0,0,1-1.1-.484,3.622,3.622,0,0,0-1.875-1.308c-.389-.167-.8-.283-1.2-.428a1.688,1.688,0,0,1-1.126-1.036,3.474,3.474,0,0,0-2.407-2.166,15.135,15.135,0,0,1-1.714-.629,3.158,3.158,0,0,0-2.117-.147,13.783,13.783,0,0,0-1.3.457c-.171.06-.548-.216-.527-.376.006-.051-.025-.113,0-.155.618-1.3.391-2.762.635-4.135.068-.385-.355-.766-.8-.758-.356.005-.707.087-1.064.079a.6.6,0,0,1-.549-.394.615.615,0,0,1,.007-.453,6.523,6.523,0,0,0,.748-1.243,3.955,3.955,0,0,1,1.069-1.792,4.016,4.016,0,0,0,.492-.649c.3-.45.552-.94,1.162-1.123.655-.595,1.333-1.17,1.952-1.8a8.277,8.277,0,0,0,.6-.955c.287-.387.975-.165,1.251-.505.464-.564,1.249-.8,1.7-1.332a4.505,4.505,0,0,1,2.158-1.288,1.172,1.172,0,0,0,.848-.693c.076-.2.323-.262.6-.213a5.576,5.576,0,0,0,2.447-.379.834.834,0,0,0,.6-1.026c-.027-.162-.122-.32-.136-.479a.29.29,0,0,1,.141-.256,10.259,10.259,0,0,1,1.394-.276,1.74,1.74,0,0,0,1.239-.545,1.589,1.589,0,0,1,1.863-.514,4.325,4.325,0,0,0,1.087.042,1.257,1.257,0,0,0,.511-.1,6.928,6.928,0,0,0,1.512-.8,12.617,12.617,0,0,1,2.259-1.494,1.931,1.931,0,0,0,1.07-1.207,2.187,2.187,0,0,1,1.187-1.321,1.033,1.033,0,0,1,.319-.135c.108-.02.281-.027.339.029a.97.97,0,0,1,.24.421.388.388,0,0,1-.1.3,6.319,6.319,0,0,0-1.232,1.713.885.885,0,0,1-.342.352,2.477,2.477,0,0,0-.888,1.16,1.407,1.407,0,0,1-.825.779c-.371.162-.765.288-1.121.469a1.318,1.318,0,0,0-.491.435.521.521,0,0,0,.01.449.412.412,0,0,0,.449.222c.287-.061.56-.172.852-.213.8-.115,1.043.12.986.792a1.162,1.162,0,0,0,.032.325.561.561,0,0,0,.547.366,4.867,4.867,0,0,0,1.515-.405,33.8,33.8,0,0,0,3.514-2.092.592.592,0,0,1,.289-.174,1.025,1.025,0,0,1,.513.056,1.331,1.331,0,0,1,.569.421,2.431,2.431,0,0,0,1.842.993,2.854,2.854,0,0,0,2.233-.32.731.731,0,0,0,.372-.827.705.705,0,0,0-.583-.575c-.118-.029-.242-.037-.361-.069-.575-.149-.614-.187-.641-.635-.006-.109.006-.218.006-.326a1.187,1.187,0,0,0-.734-1.078c-.422-.227-.936-.337-1.217-.753a1.956,1.956,0,0,0-1.032-.676.986.986,0,0,1-.657-.934c-.02-.324,0-.647,0-.971-.007-.207-.211-.286-.378-.3-.3-.03-.6,0-.908-.006a.494.494,0,0,1-.511-.384,3.6,3.6,0,0,1-.1-.486.568.568,0,0,1,.378-.653,4.834,4.834,0,0,1,.5-.169.6.6,0,0,1,.662.141,2.05,2.05,0,0,0,.842.645.942.942,0,0,1,.551.643c.086.265.139.538.23.8a.825.825,0,0,0,.9.427c.1-.013.249-.117.247-.184-.007-.215-.086-.428-.112-.644-.019-.16-.068-.364.014-.472.293-.387.574-.869,1.176-.864A3.875,3.875,0,0,0,207.6,43.9c1.1-.619,2.173-1.272,3.323-1.825a1.421,1.421,0,0,0,.855-1.622,8.172,8.172,0,0,0-.291-.952,11.2,11.2,0,0,1-.286-1.116c-.071-.406.1-.7.509-.712.712-.019,1.19-.464,1.825-.611a.506.506,0,0,0,.332-.343,1.575,1.575,0,0,1,.729-1.043c.155-.115.045-.466-.14-.583-.35-.223-.848-.246-1.062-.648a3.941,3.941,0,0,0-.9-1.061c-.054-.049-.015-.2.009-.289.01-.035.1-.074.154-.07a3,3,0,0,1,.893.117,1.5,1.5,0,0,0,1.389-.007.926.926,0,0,1,.862.077,1.152,1.152,0,0,0,.69.136c.483-.134.667.1.847.423a1.12,1.12,0,0,0,.306.414.746.746,0,0,0,.506.112,2.17,2.17,0,0,0,1.059-.564,3.557,3.557,0,0,1,.5-.434.593.593,0,0,1,.754.274c.181.407.137.673-.136.888a13.344,13.344,0,0,1-2.059,1.24.369.369,0,0,0-.057.566c.131.092.382.2.483.145.523-.246,1.01-.547,1.516-.817a1.009,1.009,0,0,0,.582-.759.562.562,0,0,1,.412-.47.528.528,0,0,0,.345-.793,1.707,1.707,0,0,1-.041-1.429.368.368,0,0,1,.252-.19c.4-.049,1.032.229,1.07.511a1.46,1.46,0,0,0,.818,1.193,5.787,5.787,0,0,1,1.234,1.241.352.352,0,0,1,.065.308c-.072.212-.822.262-.974.059a4.316,4.316,0,0,1-.306-.6.572.572,0,0,0-.635-.2.689.689,0,0,0-.486.912,2.6,2.6,0,0,1,.428,1.059c.025.419.267.594.74.542.554-.061.952.013,1.145.558.05.141.224.26.359.372a.588.588,0,0,0,.807-.04,2.21,2.21,0,0,0,.157-.282c.183-.29.171-.243.516-.149.737.2,1.171.8,1.825,1.107a.591.591,0,0,1,.248.415c.049.488.07.978.072,1.466a1.41,1.41,0,0,1-.754,1.372,3.4,3.4,0,0,0-1.376,1.2,1.4,1.4,0,0,1-.858.531c-.458.122-.9.282-1.356.419a3.271,3.271,0,0,0-1.316.791.716.716,0,0,0-.206.578c.08.426.281.84.377,1.266a.43.43,0,0,1-.2.4c-.637.136-1.223.383-1.835.56a9.449,9.449,0,0,1-1.968.209,3.994,3.994,0,0,1-1.968-.251,1.78,1.78,0,0,0-1.712.184,1.634,1.634,0,0,0-.414.291,1.314,1.314,0,0,1-.907.442.877.877,0,0,0-.455.223,7.7,7.7,0,0,0-.653.748,1.1,1.1,0,0,0-.141.935.657.657,0,0,0,.428.51,4.307,4.307,0,0,0,2.837.242,8.643,8.643,0,0,0,1.137-.437,1.475,1.475,0,0,1,1.211-.066,1.952,1.952,0,0,0,1.717-.145,1.452,1.452,0,0,1,1.75.429,7.878,7.878,0,0,0,1.615,2.014c.161.108.108.3.009.436a.65.65,0,0,0,.08.9,2.538,2.538,0,0,1,.8,1.468.815.815,0,0,0,.064.156.545.545,0,0,0,.754.222c.154-.074.279-.2.433-.27a1.251,1.251,0,0,1,1.193.108,4.378,4.378,0,0,1,.488.505,2.2,2.2,0,0,0,1.544.835,7.774,7.774,0,0,1,2.767.848,3.468,3.468,0,0,0,1.045.264.731.731,0,0,0,.887-.768,1.168,1.168,0,0,0-.066-.484,5.221,5.221,0,0,0-1.391-1.938,14.8,14.8,0,0,1-1.539-1.453.656.656,0,0,1-.1-.464c0-.064.185-.179.224-.161.265.128.518.407.767.412a2.594,2.594,0,0,1,1.435.682,4.751,4.751,0,0,1,.565.434,1.33,1.33,0,0,0,.79.4,1.877,1.877,0,0,1,1.419.952c.391.55.576.509.908-.092a.79.79,0,0,1,.313-.337c.447-.217.494-.516.354-.951-.116-.359.038-.522.369-.616.057-.017.117-.021.174-.036,1.04-.271,1.14-.413.932-1.342a2.817,2.817,0,0,0-.2-.8,1.274,1.274,0,0,1-.073-1.091.947.947,0,0,0-.759-1.274,4.13,4.13,0,0,1-1.287-.646c-.139-.1-.337-.255-.337-.376,0-.829-.552-1.735.269-2.459a.666.666,0,0,0,.214-.424c.032-.55.51-.819.84-1.182a.368.368,0,0,1,.477.018,3.471,3.471,0,0,0,.775.7,2.63,2.63,0,0,1,.963,1.387c.118.424.272.841.393,1.265a.925.925,0,0,0,.9.716,1.663,1.663,0,0,1,.961.434.737.737,0,0,0,1.18-.246,2.075,2.075,0,0,0,.2-.442c.045-.155.046-.321.078-.48a.786.786,0,0,1,.818-.711,2.122,2.122,0,0,0,2.022-1.088c.1-.188.345-.308.444-.493a1.008,1.008,0,0,1,1-.535.613.613,0,0,0,.521-.377,1.551,1.551,0,0,1,.447-.467c.186-.13.447-.213.381-.472a1.69,1.69,0,0,0-.3-.588,1.38,1.38,0,0,0-1.405-.6.524.524,0,0,1-.614-.482.79.79,0,0,0-.031-.161c-.116-.323-.173-.361-.5-.353-.8.021-.82.024-.94-.607a1.135,1.135,0,0,0-.346-.737c-.27-.233-.532-.471-.779-.722a.858.858,0,0,0-.82-.265,2.416,2.416,0,0,1-2.083-.348c-.564-.424-1.142-.837-1.711-1.259a.6.6,0,0,1-.107-.136.9.9,0,0,1-.136-1.078c.276-.37.5-.866,1.21-.791.544.059,1.095.067,1.643.086.185.008.464-.277.449-.438a.72.72,0,0,0-.052-.318,1.042,1.042,0,0,1,.036-1.359.491.491,0,0,0-.03-.46c-.377-.637-.78-1.262-1.186-1.886a1.339,1.339,0,0,0-.893-.561c-.484-.094-.971-.16-1.456-.248a1.248,1.248,0,0,1-1.1-.781c-.129-.364-.339-.707-.487-1.066-.248-.6-.323-.667-1.064-.73a2.788,2.788,0,0,0-1.745.236c-.911.514-1.387.21-1.466-.824a1.439,1.439,0,0,0-.611-1.31c-.609-.4-.63-1.2-1.267-1.628-.108-.073-.091-.307-.108-.47a7.856,7.856,0,0,0-.059-.812,2.521,2.521,0,0,0-1.963-1.837,5.461,5.461,0,0,0-1.464-.121,3.856,3.856,0,0,1-1.271-.116,11,11,0,0,0-1.274-.2,1.622,1.622,0,0,0-1.468.467c-.189.2-.412.147-.624-.031a1.513,1.513,0,0,0-.833-.34,6.014,6.014,0,0,0-4.016.654,1.177,1.177,0,0,1-1.219-.028,1.161,1.161,0,0,1-.449-.507.893.893,0,0,0-.875-.507,10.939,10.939,0,0,0-2.374.148c-.709.132-1.481.091-2.159.283a11.135,11.135,0,0,0-2.077.921,5.591,5.591,0,0,0-1.428.941c-.781.8-1.669,1.5-2.53,2.223a1.2,1.2,0,0,0-.344.361,11,11,0,0,1-1.58,2.076,1.239,1.239,0,0,0-.276,1.352,1.013,1.013,0,0,1-.086.616c-.062.207-.2.388-.264.594a1.507,1.507,0,0,0,1.088,1.705,4.64,4.64,0,0,0,2.338.229.74.74,0,0,1,.661.246c.127.124.246.256.378.377a1.081,1.081,0,0,1,.33,1.356,3.407,3.407,0,0,0-.274,1.739.965.965,0,0,1-.83,1.091,1.826,1.826,0,0,0-1.573,1.128,1.414,1.414,0,0,1-1.753.641.978.978,0,0,0-1.287.512,1.868,1.868,0,0,0-.107.472,8.93,8.93,0,0,1-.05.971.881.881,0,0,1-.324.531,9.208,9.208,0,0,1-1.064.566.537.537,0,0,1-.743-.25,7.34,7.34,0,0,1-.264-.959,1.536,1.536,0,0,1,1.1-1.951,1.22,1.22,0,0,0,.878-1.1,3.438,3.438,0,0,0-.173-1.291,1.4,1.4,0,0,0-1.647-.76,1.293,1.293,0,0,0-.572.341,17.876,17.876,0,0,0-2,1.955c-.023.034-.1.044-.156.049a.283.283,0,0,1-.165-.027c-.047-.031-.108-.106-.095-.138a3.388,3.388,0,0,0,.373-1.7c-.023-.182.181-.374.291-.558.082-.138.189-.263.27-.4.093-.16-.081-.492-.3-.537-.357-.075-.72-.132-1.082-.189-.179-.026-.361-.028-.542-.049a.394.394,0,0,1-.25-.4,1.069,1.069,0,0,1,.1-.3,2.727,2.727,0,0,1,1.313-1.02.63.63,0,0,0,.381-.809,2.349,2.349,0,0,0-.255-.625.969.969,0,0,1,.009-1.226,1.444,1.444,0,0,0,0-1.837,1.041,1.041,0,0,1-.146-.307.78.78,0,0,1,.2-.9,3.924,3.924,0,0,1,.946-.709,1.668,1.668,0,0,0,1.036-1.2.506.506,0,0,1,.544-.336c.613.013,1.226.054,1.838.064a1.62,1.62,0,0,0,.71-.079,7.451,7.451,0,0,0,2.179-1.355,4.43,4.43,0,0,1,2.109-1.391,2.018,2.018,0,0,0,1.074-.8.538.538,0,0,0,0-.619.935.935,0,0,0-.905-.483c-.241.025-.48.069-.716.116a2.325,2.325,0,0,1-1.612-.226,3.759,3.759,0,0,0-1.978-.328c-.672.018-1.332.141-2,.173a1.18,1.18,0,0,0-1.137.635,1,1,0,0,1-.939.635,1.11,1.11,0,0,0-.964.62c-.37.6-.713,1.222-1.11,1.81a2.052,2.052,0,0,0-.42,1.2,6,6,0,0,1-1.021,2.524c-.213.462-.9.483-1.316.772a2.65,2.65,0,0,1-.4.309,9.413,9.413,0,0,1-1.473.552,1.689,1.689,0,0,0-.774.334,4.959,4.959,0,0,1-.663.524.985.985,0,0,0-.579.92,1.264,1.264,0,0,1-.671,1.229,1.219,1.219,0,0,0-.563,1.418c.04.216.078.434.1.651a.506.506,0,0,1-.422.448c-.419.049-.837.094-1.259.129a.9.9,0,0,1-.676-.226c-.133-.12-.243-.261-.366-.389a1.4,1.4,0,0,0-1.814-.162,5.131,5.131,0,0,0-1.1,1.011,1.729,1.729,0,0,1-1.3.722,2.167,2.167,0,0,0-.675.2,2.023,2.023,0,0,0-.518.415.506.506,0,0,0,.16.722c.452.188.91.356,1.364.538a.33.33,0,0,1,.126.427c-.109.121-.2.286-.344.349a3.113,3.113,0,0,0-1.547,1.206c-.41.153-.563.515-.823.793a1.1,1.1,0,0,1-.626.242,1.408,1.408,0,0,1-.72-.066,3.643,3.643,0,0,0-2.327-.186,17,17,0,0,1-2.719.147,1.933,1.933,0,0,1-1.5-.535,2.446,2.446,0,0,0-.271-.237,1.388,1.388,0,0,0-1.19-.337,1.375,1.375,0,0,1-.35.049,1.353,1.353,0,0,1-1.369-.964,9.317,9.317,0,0,1-.238-1.465.739.739,0,0,1,1.1-.648c.223.095.418.247.637.354a2.476,2.476,0,0,0,.671.267,12.088,12.088,0,0,0,3.269.306,1.363,1.363,0,0,1,1,.363.341.341,0,0,0,.561-.151,1.728,1.728,0,0,1,.5-.821,1.342,1.342,0,0,0,.479-1.158,5.632,5.632,0,0,1,.028-.651c.054-.579.491-.769,1.168-.508a2.5,2.5,0,0,1,.332.165.736.736,0,0,0,.69.035c.266-.116.548-.207.807-.334a.8.8,0,0,0,.114-1.384,7.443,7.443,0,0,0-2.849-1.6.947.947,0,0,1-.312-.187c-.424-.3-.6-1.067-.232-1.323a2.311,2.311,0,0,0,1.114-2.058,3.034,3.034,0,0,1,.337-1.071,9.46,9.46,0,0,0,.462-1.033c.171-.645.36-1.248,1.221-1.388a.238.238,0,0,0,.143-.092,2.774,2.774,0,0,1,1.54-1,1.167,1.167,0,0,0,.49-.441.9.9,0,0,0-.583-1.341,5.374,5.374,0,0,0-2.366-.152c-.892.164-1.447.459-1.294,1.375.035.209-.242.36-.5.332a2.231,2.231,0,0,1-.727-.105,1.442,1.442,0,0,0-2.094.609,4.82,4.82,0,0,0-.589.779,9.92,9.92,0,0,0-.913,2.573c-.065.575-.516.791-1.047.933a.347.347,0,0,1-.274-.144.809.809,0,0,1-.035-.471,7.356,7.356,0,0,1,.353-.726c.5-1.08-.009-2.025-1.344-2.488-.176-.06-.356-.111-.535-.161-.242-.069-.525.07-.542.276a8.1,8.1,0,0,1-.075.965c-.025.12-.214.219-.356.286a1.188,1.188,0,0,1-.36.024c-.542.047-.968-.068-1.141-.62a.862.862,0,0,0-.529-.46,4.507,4.507,0,0,0-1.8-.4,1.046,1.046,0,0,1-.929-.474,1.557,1.557,0,0,0-.973-.75.956.956,0,0,1-.745-.7,1.983,1.983,0,0,0-.705-1.163,1.125,1.125,0,0,1-.319-.415,1.412,1.412,0,0,0-1.139-.772,2.087,2.087,0,0,0-1.88.245,1.312,1.312,0,0,1-1.217.1,2.86,2.86,0,0,1-1.154-.521,2.74,2.74,0,0,0-2.068-.678,12.434,12.434,0,0,0-2.532.16,2.1,2.1,0,0,1-.719.035c-.429-.009-.86-.028-1.29-.058a1.817,1.817,0,0,0-1.84,1.606,1.563,1.563,0,0,1-.97,1.417,2.354,2.354,0,0,1-.781.362A2.824,2.824,0,0,0,143,22.433a1.5,1.5,0,0,1-.806.575,1.2,1.2,0,0,0-.576.343,8.824,8.824,0,0,1-2.858,2.038,1.47,1.47,0,0,0-.357.335.41.41,0,0,0,.054.456c.047.038.084.086.133.121a16.1,16.1,0,0,1,1.363.931c.478.4.208.948.37,1.419a.8.8,0,0,0,.705.472,2.94,2.94,0,0,0,.7-.1c.609-.206,1.212-.43,1.8-.673a3.384,3.384,0,0,1,1.214-.253,4.351,4.351,0,0,0,2.853-1.12,9.99,9.99,0,0,1,.78-.631,2.721,2.721,0,0,1,.473-.214c.133-.057.434.056.449.191a1.744,1.744,0,0,0,1.23,1.56c.1.04.18.156.27.236a.348.348,0,0,1-.146.537,6.479,6.479,0,0,0-.713.078,3.155,3.155,0,0,0-.787.336.635.635,0,0,0-.231.864.98.98,0,0,0,.812.633c.489.04.98.018,1.47.062a11.792,11.792,0,0,0,3.785-.071,5.379,5.379,0,0,1,3.048.429.314.314,0,0,1,.127.266.356.356,0,0,1-.174.238,1.433,1.433,0,0,1-1.061.015,11.574,11.574,0,0,0-4.733-.075,18.222,18.222,0,0,1-2.311.344,5.191,5.191,0,0,0-1.368.353c-.7.242-.836.6-.569,1.3a2.61,2.61,0,0,0,2.206,1.629c.55.048,1.1.061,1.649.1a.61.61,0,0,1,.495.45c.051.435.084.871.14,1.306a.735.735,0,0,0,.768.6c1.2-.1,2.425-.077,3.623-.235,1.007-.13,2.044-.145,3.068-.2a.918.918,0,0,1,.363.049c.106.04.251.113.282.2.186.47.351.949.5,1.427a.336.336,0,0,1-.054.3,2.369,2.369,0,0,0-.512,2.129,1.25,1.25,0,0,1-.178.6c-.031.065-.167.094-.264.115a.2.2,0,0,1-.153-.082c-.138-.312-.236-.636-.395-.938-.213-.4-.763-.364-1.078-.64-.087-.078-.136-.19-.219-.272a7.181,7.181,0,0,0-.53-.486,1.7,1.7,0,0,0-1.539-.384,10.879,10.879,0,0,0-1.532.418,3.122,3.122,0,0,1-1.585.211,7.535,7.535,0,0,0-2.517.112,3.227,3.227,0,0,1-1.962-.3.737.737,0,0,1-.493-.472.626.626,0,0,1,.468-.6c.521-.112,1.051-.2,1.566-.329a.726.726,0,0,0,.405-.274,1.2,1.2,0,0,0-.466-1.73c-.872-.446-1.707-.745-2.532-.1a.782.782,0,0,1-.518.045c-.364-.065-.721-.178-1.081-.26a4.466,4.466,0,0,1-2.034-.81,4.989,4.989,0,0,0-1.36-.563c-.646.143-1.047-.287-1.456-.625a4.524,4.524,0,0,0-2.572-.932,2.506,2.506,0,0,0-2.283.642,2,2,0,0,1-.5.431,4.988,4.988,0,0,1-.794.331c-.191.065-.56-.186-.538-.362.036-.264.109-.523.132-.787a.368.368,0,0,0-.3-.38,1.105,1.105,0,0,0-1.044.027c-.522.4-1.169.664-1.434,1.319-.176.437-.866.339-1.175-.114a1.017,1.017,0,0,1-.213-.942,2.879,2.879,0,0,0,0-1.773.742.742,0,0,0-.463-.509.543.543,0,0,0-.569.261c-.125.173-.192.419-.371.517-.944.521-1.913,1.009-2.878,1.5a.539.539,0,0,1-.623-.24.4.4,0,0,1-.062-.159c-.044-.481-.414-.664-.872-.757a1.856,1.856,0,0,0-1.072.06,6.916,6.916,0,0,1-2,.618,2.391,2.391,0,0,0-.983.343,3.233,3.233,0,0,1-1.687.421,2.751,2.751,0,0,0-1.925.69,1.465,1.465,0,0,1-.291.174.738.738,0,0,1-.811-.223c-.08-.088-.115-.207-.194-.294-.2-.223-.445-.286-.622-.121a1.134,1.134,0,0,1-1.264.352.711.711,0,0,0-.505.079,2.407,2.407,0,0,1-1.325.4.728.728,0,0,0-.606.271c-.208.249-.441.483-.629.745a.849.849,0,0,1-.893.372,5.117,5.117,0,0,0-.917-.029,2.625,2.625,0,0,1-1.721-.589,4.941,4.941,0,0,1-.917-.872,2.276,2.276,0,0,0-1.573-.86,7.026,7.026,0,0,0-1.286-.1,2.7,2.7,0,0,1-2.048-.668c-.133-.121-.322-.2-.452-.32a1.991,1.991,0,0,0-1.883-.464,8.193,8.193,0,0,0-2.057.5.8.8,0,0,1-.865-.055,3.877,3.877,0,0,0-2.435-.731,6.465,6.465,0,0,1-2.532-.544,4.548,4.548,0,0,0-2.341-.393,12.286,12.286,0,0,0-2.878.188.868.868,0,0,1-.364-.05.846.846,0,0,1-.605-.6c-.023-.161.021-.325,0-.485a.574.574,0,0,0-.528-.419,8.306,8.306,0,0,0-1.98.155.97.97,0,0,1-.865-.215,1.731,1.731,0,0,0-.623-.383,2.979,2.979,0,0,1-1.325-.629,1.151,1.151,0,0,0-1.058-.077c-.821.288-1.632.595-2.445.9a7.32,7.32,0,0,1-3.628.665,1.008,1.008,0,0,0-.364.008,4.02,4.02,0,0,0-1.506.42,3.549,3.549,0,0,1-1.54.328,4.766,4.766,0,0,0-1.483.473,2.537,2.537,0,0,1-1.509.382,3.776,3.776,0,0,0-2.956.8,1.218,1.218,0,0,1-.312.14A8.54,8.54,0,0,0,60.4,33.662a2.214,2.214,0,0,1-.509.412,24.8,24.8,0,0,1-2.725,1.038,26.311,26.311,0,0,1-4.022.648,2.888,2.888,0,0,0-1.311.374c-.417.275-.861.519-1.272.8a2.9,2.9,0,0,0-.462.451A.538.538,0,0,0,50.12,38a3.338,3.338,0,0,0,.4.373c.909.689,1.459,1.46,1.061,2.471a.57.57,0,0,0-.006.323c.038.159.059.369.179.463a3.69,3.69,0,0,1,.967,1.83.933.933,0,0,1-.606,1.178,7.141,7.141,0,0,1-.978.325,1.9,1.9,0,0,1-.7,0c-.365-.065-.725-.178-1.087-.275-.44-.116-.5-.192-.618-.735-.106-.5-.353-.71-.842-.643-.7.1-1.393.239-2.087.369a2.631,2.631,0,0,0-1.514.708,1.175,1.175,0,0,1-.939.342,5.3,5.3,0,0,1-.549-.017,2.411,2.411,0,0,0-1.815.464,4.005,4.005,0,0,1-1.392.608,14,14,0,0,0-1.439.54c-.265.112-.26.439-.016.7a.641.641,0,0,0,.128.127c.443.25.645.466.3.907a3.074,3.074,0,0,0-.352,1.206c-.044.19.193.476.394.521a5.25,5.25,0,0,0,2.521.116,4.792,4.792,0,0,1,2.15.015,4.084,4.084,0,0,0,2.8-.2,3.5,3.5,0,0,1,1.014-.239.627.627,0,0,1,.326.03c.045.141.1.324.043.43-.316.552-.652,1.1-1.008,1.626a2.712,2.712,0,0,1-.983.836,3.877,3.877,0,0,1-2.532.518,2.535,2.535,0,0,0-1.655.344,4.758,4.758,0,0,1-1.512.723,1.368,1.368,0,0,1-1.052-.139,1.186,1.186,0,0,0-1.355-.084A5.884,5.884,0,0,0,34.928,55.4a1.009,1.009,0,0,1-.693.405c-1.318.11-2.135.956-3.2,1.437a2.519,2.519,0,0,1-1.367.864,1.952,1.952,0,0,0-.93.87,1.093,1.093,0,0,0-.135.93c.09.312.362.461.634.614.161.088.182.169.052.256a6.884,6.884,0,0,0-1.506.99,1.006,1.006,0,0,0-.266.557,1.329,1.329,0,0,0-1.041.037,2.591,2.591,0,0,1-1.321.335,1.237,1.237,0,0,0-.466.166.479.479,0,0,0-.174.563,1.619,1.619,0,0,0,1.4.831c.289-.046.634-.109.982-.158a1.618,1.618,0,0,0,.953-.49c.039.113.076.229.113.343a.707.707,0,0,0,.578.385,6.414,6.414,0,0,0,.711-.048c.4-.066.8-.17,1.2-.231a4.685,4.685,0,0,1,.713-.018.506.506,0,0,1,.425.623,2.386,2.386,0,0,1-.326.536c-.173.2-.472.334-.562.562a18.39,18.39,0,0,1-.95,1.636c-.033.065.027.211.094.285a1.34,1.34,0,0,0,.311.191c.527.311.646.315.911-.015a3.444,3.444,0,0,1,1.237-.8.972.972,0,0,1,.865.051c.473.213.877.464.91,1a.914.914,0,0,0,.238.446.511.511,0,0,0,.33.11.494.494,0,0,0,.314-.106c.272-.256.52-.534.783-.8a.455.455,0,0,1,.492.03c.092.081.187.16.27.247.58.624.581.926.019,1.38-.209.17-.433.326-.629.509a11.3,11.3,0,0,1-2.876,1.934,6.568,6.568,0,0,0-2.091,1.3,2.6,2.6,0,0,1-1.154.619,25.106,25.106,0,0,0-3.766,1.483,3.771,3.771,0,0,0-1.584,1.108.79.79,0,0,1-.934.257,2.929,2.929,0,0,0-1.571-.041,10.046,10.046,0,0,0-3.594,1.685,1.687,1.687,0,0,1-1.41.736c-.049,0-.078.07-.127.1a.3.3,0,0,0,.014.43,1.306,1.306,0,0,0,1.2.181,7.075,7.075,0,0,0,2.551-1.469.594.594,0,0,1,.246-.2,1.723,1.723,0,0,1,.669-.1c.3.044.319.3.348.523a3.684,3.684,0,0,0,.108.486c.016.054.068.148.088.147.111-.007.268,0,.312-.061.152-.211.2-.528.4-.663A4.762,4.762,0,0,1,25.514,77.3a1.557,1.557,0,0,0,.964-.29,1.227,1.227,0,0,1,.617-.225,3.616,3.616,0,0,0,2.542-1.144,3.663,3.663,0,0,1,1.568-.869c.79-.269,1.759-.228,2.34-.88.093-.1.321-.1.485-.153.433-.14.857-.3,1.3-.421a1.857,1.857,0,0,0,1.175-.832,1.644,1.644,0,0,1,1.236-.753,3.161,3.161,0,0,0,1.558-.614,3.655,3.655,0,0,1,1.387-.547c.816-.231,1.621-.5,2.427-.757a2.278,2.278,0,0,0,.717-.4,6.4,6.4,0,0,1,2.587-1.373,2.159,2.159,0,0,0,.312-.131.889.889,0,0,0,.433-1.239c-.1-.2-.249-.394-.358-.594a.221.221,0,0,1,.235-.323A1.527,1.527,0,0,0,48.2,65.5a3.848,3.848,0,0,1,1.715-.7.787.787,0,0,0,.461-.187,2.135,2.135,0,0,1,1.175-.6,1.075,1.075,0,0,0,.647-.481.741.741,0,0,1,.352-.318,7.35,7.35,0,0,0,2.14-1.261,1.041,1.041,0,0,1,.492-.12.471.471,0,0,1,.323.127.316.316,0,0,1,.041.3,1.48,1.48,0,0,1-1.087.916,1.927,1.927,0,0,0-1.481,1.168,1.9,1.9,0,0,1-.829.938,2.5,2.5,0,0,0-.614.523.3.3,0,0,0,.008.293c.048.082.208.2.275.183a7.712,7.712,0,0,0,2.781-.794,2.2,2.2,0,0,1,.957-.333,2.384,2.384,0,0,0,1.547-.616,2.163,2.163,0,0,1,1.062-.489c.9-.228,1.933.124,2.812-.217a.723.723,0,0,1,.357.019,2.493,2.493,0,0,1,.338.137,1.5,1.5,0,0,0,.169.069c.249.074.422.01.387-.145a.7.7,0,0,0-.115-.307c-.392-.467-.422-.49-.109-.72a.988.988,0,0,0,.505-.932.71.71,0,0,1,.282-.541,2.8,2.8,0,0,1,2.6-.631,2.206,2.206,0,0,0,.365.043,1.824,1.824,0,0,1,1.4.782c.336.48.557,1.021,1.317,1.069.148.008.315.18.452.295.233.2.441.419.675.614a1.2,1.2,0,0,0,.856.282,3.423,3.423,0,0,0,1.044-.152,3.156,3.156,0,0,1,2.277.072,4.954,4.954,0,0,1,1.515.645,1.317,1.317,0,0,0,.515.156,2.549,2.549,0,0,0,.361.01c.6.034,1.077.228,1.223.848a1.1,1.1,0,0,0,.565.664,3.68,3.68,0,0,0,.494.258,1.273,1.273,0,0,1,.8.89,3.656,3.656,0,0,0,1.147,2.1.267.267,0,0,1,.01.426.782.782,0,0,0-.291.715c.037.273.1.548.117.821a1.419,1.419,0,0,1-.6,1.407c-.227.148-.157.382.05.555a.878.878,0,0,1,.354,1.043,2.753,2.753,0,0,0-.1.79.6.6,0,0,0,.513.617c.178.041.363.042.539.088a.913.913,0,0,1,.735,1.026.884.884,0,0,1-.048.151,4.625,4.625,0,0,0,.382,3.348.41.41,0,0,0,.473.158c.043-.03.1-.04.144-.072.715-.577.62-1.565,1.175-2.231.119-.143.062-.411.107-.615a2.18,2.18,0,0,1,.159-.435c.016-.034.1-.049.157-.045a.2.2,0,0,1,.133.076,1.522,1.522,0,0,1,.149,1.121c-.057.365-.179.715-.264,1.074a.181.181,0,0,0,.085.142.635.635,0,0,0,.332.059c.093-.026.154-.133.222-.21.243-.27.357-.279.438,0a3.483,3.483,0,0,0,.515.9.28.28,0,0,1-.014.286,2.077,2.077,0,0,0-.778,1.685c.021.251-.231.362-.484.334-.457-.054-.672.119-.665.511a.97.97,0,0,1-.457.792c-.361.3-.33.688-.005,1.172a.578.578,0,0,0,.632.212c.157-.054.29-.154.447-.21a.207.207,0,0,1,.279.156.937.937,0,0,1-.158.911,4.6,4.6,0,0,0-.412.666c-.112.233.125.53.447.6.8.178.917.358.621.957-.069.142-.2.266-.227.415-.138.845-.253,1.693-.367,2.544a.5.5,0,0,0,.07.319c.087.132.2.3.341.347a6.509,6.509,0,0,0,.709.085.488.488,0,0,1-.2.954,4.347,4.347,0,0,1-1.484-.681,1.437,1.437,0,0,0-1.366-.02.713.713,0,0,0-.407.938,2.255,2.255,0,0,1,.275.956c0,.471.574.571.787.9.189.292.308.616.476.919.111.2.209.482.389.569.812.385.925,1.368,1.8,1.7.126.048.224.268.274.421a1.214,1.214,0,0,1,.019.961,5.141,5.141,0,0,0-.466,2.012c-.073.913-.256,1.807-.409,2.7a2.777,2.777,0,0,1-.23.76c-.613,1.23-1.182,2.484-1.879,3.666-1.074,1.821-2.016,3.715-3.219,5.462a2.608,2.608,0,0,1-.9,1.28,3.108,3.108,0,0,0-.874,1.654,14.131,14.131,0,0,0-.456,2.347,5.6,5.6,0,0,1-1.052,2.8c-.174.265-.39.5-.569.767-.75,1.1-.765,1.1-.28,2.4a1.208,1.208,0,0,1,.056.946,6.282,6.282,0,0,0-.21.6,2.841,2.841,0,0,0,.166,2.239,2.1,2.1,0,0,1,.334.784,1.965,1.965,0,0,0,.758,1.479c.116.1.117.175.026.282a1.631,1.631,0,0,0,.176,2.362.519.519,0,0,1,.134.606,1.631,1.631,0,0,0-.243,1.385,9.914,9.914,0,0,0,.817,1.871,2.978,2.978,0,0,1,.517,2.68.479.479,0,0,0,.05.32c.048.1.136.224.228.251.282.087.575.132.864.2a4.563,4.563,0,0,1,.859.218,10.365,10.365,0,0,0,2.087,1.045.237.237,0,0,1,.137.112c.3.6.971.865,1.395,1.354a3.448,3.448,0,0,1,.882,1.834c.069.548.1,1.1.174,1.642a14.86,14.86,0,0,0,.427,2.618,18.4,18.4,0,0,1,.809,3.9,2.025,2.025,0,0,0,.873,1.594,7.7,7.7,0,0,1,2.04,2.4,1.088,1.088,0,0,1,.23.625,5.59,5.59,0,0,1-.474,1.671c-.176.323-.736.145-1.129.175a1.449,1.449,0,0,0-.484.1.261.261,0,0,0-.086.263c.311.42.642.827.973,1.234a.807.807,0,0,0,.259.237c.763.323,1.2,1.191,2.126,1.246.147.008.312.164.449.272.372.3.726.614,1.1.908a1.792,1.792,0,0,1,.765,2.336,4.444,4.444,0,0,0-.239.586,1.429,1.429,0,0,0,.479,1.52,10.387,10.387,0,0,0,.816.692,23.65,23.65,0,0,1,2.446,2.319,2.767,2.767,0,0,1,.766,1.317.483.483,0,0,0,.688.3c1.028-.5,1.329-.917.621-2.048-.121-.193-.133-.436-.252-.629a2.538,2.538,0,0,0-.463-.512,3.285,3.285,0,0,0-1.1-.553.756.756,0,0,1-.539-.938,1.155,1.155,0,0,0-.184-1.233,1.254,1.254,0,0,1-.177-.473,14.386,14.386,0,0,1-.67-2.9,1.655,1.655,0,0,0-.666-1.33,1.6,1.6,0,0,1-.482-.706,6.382,6.382,0,0,0-.864-1.5,2.482,2.482,0,0,1-.6-1.549,2.4,2.4,0,0,0-.567-1.563c-.175-.235-.318-.488-.47-.735-.1-.171-.017-.351.221-.5.128-.08.321-.149.35-.266a.694.694,0,0,0-.135-.469.541.541,0,0,0-.6-.264.751.751,0,0,1-.665-.12,2.945,2.945,0,0,1-1.29-2.494,4.246,4.246,0,0,0,.08-1.285,3.789,3.789,0,0,1,.407-2.332.252.252,0,0,1,.39-.143,3.011,3.011,0,0,0,.968.443,3.429,3.429,0,0,1,1.72.868.725.725,0,0,1,.357.717,2.5,2.5,0,0,0-.052,1.113c.349.855.278,1.742.653,2.594a1.615,1.615,0,0,1-.254,1.96c-.067.063-.06.2-.084.3-.04.171.214.5.41.469a1.02,1.02,0,0,1,1.149.573c.275.442.617.85.923,1.276a1.385,1.385,0,0,0,.843.6.766.766,0,0,1,.61.744,5.131,5.131,0,0,0,.152.815.956.956,0,0,0,.309.391c.227.189.578.309.7.532a3.231,3.231,0,0,0,1.4,1.285.46.46,0,0,1,.15.589c-.2.3-.511.531-.556.938a.973.973,0,0,0,.348.9,17.631,17.631,0,0,0,1.758,1.2,1.261,1.261,0,0,1,.8,1.031,1.137,1.137,0,0,0,.459.885,8.278,8.278,0,0,1,2,2.192,9.8,9.8,0,0,0,1.178,1.52,4.253,4.253,0,0,1,1.441,2.823,2.509,2.509,0,0,0,.5,1.42,1.107,1.107,0,0,1,.173,1.362,2.519,2.519,0,0,0-.28.9,1.245,1.245,0,0,1-.365.848.972.972,0,0,0-.23.9,3.886,3.886,0,0,0,1.807,2.623c.331.247.687.462,1.041.676a5.336,5.336,0,0,1,1.72,1.486,2.577,2.577,0,0,0,1.421,1,5.4,5.4,0,0,0,1.857.4,1.288,1.288,0,0,1,1.088.446,8,8,0,0,0,2.866,2,10.343,10.343,0,0,1,1.132.478,4.577,4.577,0,0,0,1.48.5,4.281,4.281,0,0,1,1.782.711,15,15,0,0,0,4.336,1.847,2.254,2.254,0,0,0,1.5-.023,18.882,18.882,0,0,0,3.044-1.214,1.13,1.13,0,0,1,.63-.163,3.315,3.315,0,0,1,1.808.564,15.177,15.177,0,0,1,2.831,2.592,21.087,21.087,0,0,0,1.966,1.966,3.205,3.205,0,0,0,2.517.983,2.852,2.852,0,0,1,1.811.469,3.811,3.811,0,0,0,1.908.739c.879.552,1.9.427,2.826.754a.987.987,0,0,0,.947-.186.81.81,0,0,1,.3-.1c.136-.031.377.148.369.28a1.106,1.106,0,0,1-.071.455c-.22.417,0,.743.3,1.035a2.478,2.478,0,0,0,.586.369,1.965,1.965,0,0,1,.77.685,9.808,9.808,0,0,0,2.3,2.559c.124.1.288.315.256.408-.17.479.274.965.053,1.443-.356.763-.061,1.361.724,1.8a4.855,4.855,0,0,1,.423.3.774.774,0,0,0,.943.043.367.367,0,0,1,.462,0,6.428,6.428,0,0,0,1.871,1.229,1.335,1.335,0,0,1,.81,1.509.537.537,0,0,0,.056.315.5.5,0,0,0,.219.245c.216.074.483.039.661.156a1.764,1.764,0,0,0,1.609.3,2.679,2.679,0,0,1,2.343,1.179,1.063,1.063,0,0,0,.983.56.83.83,0,0,1,.744.595.683.683,0,0,0,.939.443c.2-.078.389-.191.593-.268.73-.276.961-.518.413-1.342-.1-.14-.193-.284-.278-.432-.166-.28-.147-.6.119-.7a2.028,2.028,0,0,0,1.043-.953,4.542,4.542,0,0,1,.358-.525.922.922,0,0,1,.721-.323,1.416,1.416,0,0,1,1.1.385,4.215,4.215,0,0,0,1.451.914.274.274,0,0,1,.132.405,1.137,1.137,0,0,1-.072.144c-.581.715-.31,1.408.231,2.088a1.242,1.242,0,0,0,.249.237A4.369,4.369,0,0,1,175,217.724a13.133,13.133,0,0,1,.482,2.244c.01.047-.033.1-.053.151a2.52,2.52,0,0,0,.023,1.591,5.468,5.468,0,0,1,.172,1.781,1.953,1.953,0,0,0,.272,1.552.556.556,0,0,1,.071.459,13.429,13.429,0,0,1-1.344,2.695,1.472,1.472,0,0,1-.509.37,1.178,1.178,0,0,1-.323.066c-.611.109-.991.428-.943,1.085a.8.8,0,0,1-.432.793.588.588,0,0,0-.227.833c.191.455-.043.645-.331.781-.535.257-1.081.494-1.625.732a.706.706,0,0,0-.487.894,2.012,2.012,0,0,1-.423,1.956,1,1,0,0,0-.256.56,1.813,1.813,0,0,1-.56,1.276,1.144,1.144,0,0,0-.227,1.062,14.51,14.51,0,0,1,.258,1.443,2.3,2.3,0,0,1-.057.793.707.707,0,0,0,.369.844,6.876,6.876,0,0,1,1.709,1.645.426.426,0,0,1-.054.685,4.664,4.664,0,0,0-.374.3c-.483.486-.993.953-1.424,1.482a2.123,2.123,0,0,0-.29,2.294c.218.51.457,1.016.693,1.525a1.359,1.359,0,0,1,.064,1.256.494.494,0,0,0-.077.3.731.731,0,0,0,.2.423,7.039,7.039,0,0,0,1.188.662,7.406,7.406,0,0,1,2.247,1.8,30.326,30.326,0,0,0,2.78,4.037c.326.84.888,1.571,1.275,2.376.751,1.568,1.813,2.976,2.543,4.547a1.2,1.2,0,0,0,.29.412,4.687,4.687,0,0,1,1.255,1.778,1.31,1.31,0,0,0,.325.381,10.017,10.017,0,0,1,1.678,2.3,4.151,4.151,0,0,1,.755,2.178,1.7,1.7,0,0,0,.3.758,5.334,5.334,0,0,0,1.317,1.537,9.083,9.083,0,0,1,1.632,1.477,1.335,1.335,0,0,0,.389.327,30.455,30.455,0,0,0,3.344,1.949c1.131.49,2.232,1.042,3.331,1.586a8.542,8.542,0,0,1,3.209,2.4,2.822,2.822,0,0,0,.629.549c.412.287.837.563,1.264.832a1.289,1.289,0,0,1,.656.925,8.752,8.752,0,0,0,.7,2.2,6.363,6.363,0,0,1,.477,1.917,7.976,7.976,0,0,0,.506,2.244,8.35,8.35,0,0,1,.484,2.575c.028.381.037.762.086,1.143a2.616,2.616,0,0,1-.284,1.715.924.924,0,0,0,.07,1.077,2.16,2.16,0,0,1,.434,1.226c.032.54.152,1.085.2,1.629a3.272,3.272,0,0,0,.328,1.264,1.187,1.187,0,0,1,.138.782,3.29,3.29,0,0,0,.08,1.925,6.389,6.389,0,0,1,.207,1.618,36.8,36.8,0,0,0,.252,4.239,1.651,1.651,0,0,1-.121.778,2.242,2.242,0,0,0,.227,2.038c.115.19.195.4.306.591a1.626,1.626,0,0,1,.147,1.42,3.053,3.053,0,0,0,.159,2.224,23.236,23.236,0,0,1,1.242,3.069.713.713,0,0,0,.156.3,2.392,2.392,0,0,1,.5,2.015,2.363,2.363,0,0,0,.179,1.108,2.181,2.181,0,0,1,.12,1.12,4.255,4.255,0,0,0,.125,2.4,1.726,1.726,0,0,1-.119,1.4,1.065,1.065,0,0,0-.057.941,1.184,1.184,0,0,1,.069.482c-.033.973-.083,1.941-.117,2.913a.985.985,0,0,1-.318.7.676.676,0,0,0-.162.743,7.984,7.984,0,0,0,.444,1.062,7.485,7.485,0,0,1,.607.988,9.927,9.927,0,0,0,1.128,2.03c.143.237.3.467.43.712a1.525,1.525,0,0,1,.144,1.412,1.925,1.925,0,0,0-.094,1.264c.087.431.129.871.242,1.3a8.577,8.577,0,0,0,.487,1.4c.16.338.528.61.625.953a4.144,4.144,0,0,1-.05,1.108,2.282,2.282,0,0,0,.1.645c.209.743.424,1.482.663,2.214a.778.778,0,0,0,.33.346.769.769,0,0,0,.893,0,.9.9,0,0,0,.146-.762,1.223,1.223,0,0,0-.066-.319c-.289-.665-.328-1.388-.575-2.045a.928.928,0,0,1,.292-1.132.353.353,0,0,1,.55.023c.2.253.225.591.534.805s.031.615.131.918c.052.156.141.3.184.463.184.673.667,1.279.482,2.042a.852.852,0,0,0,.206.606,1.715,1.715,0,0,1,.342,1.07c.033.583.421,1.143.2,1.75a7.407,7.407,0,0,0,.322.751,1.6,1.6,0,0,1,.273.762c0,.167-.118.35-.263.311a.378.378,0,0,1-.232-.152c-.105-.252-.106-.6-.276-.754a5.574,5.574,0,0,1-.818-1.007.531.531,0,0,0-.579-.195.712.712,0,0,0-.366.241.3.3,0,0,0,.119.42,1.266,1.266,0,0,1,.668.864,7.819,7.819,0,0,0,.393.719.567.567,0,0,1-.074.436,1.1,1.1,0,0,1-.352.3.735.735,0,0,0-.341,1.066c.051.1-.053.3-.124.424-.1.179-.32.326-.338.509a1.176,1.176,0,0,0,.172.77c.177.222.33-.07.487-.167.08-.058.214-.125.277-.09a8.421,8.421,0,0,0,1.98.642.629.629,0,0,1,.373.5c.016.323,0,.653.041.976a.988.988,0,0,1-.461,1.093,1.553,1.553,0,0,0-.24.195.968.968,0,0,0-.26,1.162,5.285,5.285,0,0,0,.963,1.7,3.109,3.109,0,0,1,.717,1.272.834.834,0,0,0,.84.645.641.641,0,0,1,.3.086.293.293,0,0,1,.119.408c-.071.133-.2.292-.174.413a1.649,1.649,0,0,0,.556.956c.029.024.135.008.14-.011.059-.206.1-.417.156-.619.072-.257.187-.291.466-.148.093.055.224.086.272.168a.655.655,0,0,1,.123.424c-.035.14-.2.229-.289.357-.171.238-.167.389.023.576.155.152.329.284.494.428.268.229.268.229.024.642-.052.089-.115.174-.16.264a.361.361,0,0,0,.194.4.543.543,0,0,0,.59-.054,1.335,1.335,0,0,0,.349-.5c.162-.443.464-.513.874-.392a2.178,2.178,0,0,0,.313.054.463.463,0,0,1,.425.416c.04.339.079.63.431.813.407.218.429.564.29.972-.086.257.1.389.344.413.316.031.251.287.283.486.036.225.109.443.368.459a1.283,1.283,0,0,1,1.2.63c.149.26.486.416.743.614.165.125.114.269.082.424a1.34,1.34,0,0,0,1.07,1.805,9.88,9.88,0,0,1,2.153.513,2.161,2.161,0,0,0,.773.1c.458,0,.791.113.867.677.013.109.221.237.362.3.192.081.408.1.609.167a1.8,1.8,0,0,1,1.173.766c.167.276.513.187.777-.117.1-.116.194-.237.305-.346a.314.314,0,0,1,.406.1.385.385,0,0,1,.073.136c.045.541.475.7.842.9a.71.71,0,0,0,.862-.125.282.282,0,0,1,.417.035c.536.6,1.291.362,1.911.634.052.024.179-.089.237-.167a.764.764,0,0,1,.643-.369.722.722,0,0,0,.689-.269,1.1,1.1,0,0,1,.886-.529,11.242,11.242,0,0,0,1.495-.377c.051-.015.1-.035.149-.047.187-.054.329-.248.239-.334-.074-.074-.16-.191-.237-.191a6.349,6.349,0,0,1-2.422-.669,13.216,13.216,0,0,1-2.706-1.365c-.6-.443-1.253-.828-1.855-1.287-.492-.051-.676-.416-.9-.824a1.81,1.81,0,0,0-1.83-1.058,1.625,1.625,0,0,1-.728-.257c-.063-.031-.092-.183-.111-.28-.025-.14.038-.218.16-.218.261,0,.522.02.779,0,.072-.008.162-.124.183-.21a.378.378,0,0,0-.051-.3c-.356-.335-.731-.646-1.1-.969-.161-.14-.393-.264-.455-.443a4.39,4.39,0,0,0-.939-1.33,1.338,1.338,0,0,1,.168-1.742c.158-.136.315-.269.48-.393.736-.552.771-.673.452-1.6-.036-.1-.091-.2-.13-.3a1.288,1.288,0,0,1,.071-1.093,4.96,4.96,0,0,1,1.255-1.789.837.837,0,0,0,.366-.676,9.762,9.762,0,0,0-.19-1.618,1.07,1.07,0,0,0-.9-.84,2.637,2.637,0,0,0-.63-.047,2.322,2.322,0,0,1-1.367-.405,6.359,6.359,0,0,1-2.074-1.812,1.077,1.077,0,0,1-.207-.611,2.462,2.462,0,0,1,.835-1.824,2.3,2.3,0,0,1,1.4-.622c.322,0,.413-.241.465-.529a3.045,3.045,0,0,0-.148-1.917,8.167,8.167,0,0,1-.276-.774,1.206,1.206,0,0,1,.294-1.334c.108-.113.236-.2.345-.315a.361.361,0,0,0-.028-.44c-.17-.132-.358-.237-.529-.369-.2-.156-.221-.288-.084-.56.049-.093.132-.163.175-.26a.323.323,0,0,0-.108-.421,1.153,1.153,0,0,0-.407-.252,1.56,1.56,0,0,1-1.261-1.342,2.907,2.907,0,0,0-.482-1.039c-.155-.229-.309-.455-.455-.688a.344.344,0,0,1,.272-.471,2.9,2.9,0,0,1,.778.082c.515.152,1.019.35,1.526.533a2.506,2.506,0,0,0,1.711-.039c.3-.1.587-.222.884-.327a.805.805,0,0,0,.362-1.081c-.126-.179-.251-.362-.377-.54a1.135,1.135,0,0,1-.212-.934,2.5,2.5,0,0,0-.524-2.294c-.078-.1.057-.354.176-.362.263-.012.525-.031.79-.027a19.2,19.2,0,0,0,4.847-.708,12.34,12.34,0,0,0,2.333-.93,1.054,1.054,0,0,0,.6-.7,12.245,12.245,0,0,1,.874-2.4,2.059,2.059,0,0,0-.063-1.871,1.025,1.025,0,0,0-.687-.653,1.43,1.43,0,0,1-1.182-1.548c0-.109.005-.218,0-.327a1.927,1.927,0,0,0-1.2-1.645c-.294-.14-.616-.218-.91-.362a2.4,2.4,0,0,1-1.183-1.089.177.177,0,0,1,.011-.151c.027-.039.1-.082.134-.07a5.873,5.873,0,0,0,2.015.478,3,3,0,0,1,.757.288c.4.159.814.3,1.208.482a1.9,1.9,0,0,0,1.835.144c.156-.082.414,0,.623.035.157.019.313.093.47.109a2.716,2.716,0,0,0,2.956-1.863,8.136,8.136,0,0,1,.854-1.7,4.253,4.253,0,0,0,.906-2.2,2.741,2.741,0,0,1,.9-1.972,1.211,1.211,0,0,0,.4-.848c-.275.129-.528.381-.868.175-.254-.151-.253-.633.051-1.011a2.5,2.5,0,0,0,.691-1.715,1.783,1.783,0,0,1,.3-.723.58.58,0,0,1,.571-.16.535.535,0,0,1,.349.49,4.7,4.7,0,0,1-.2.759c-.262.692-.545,1.373-.82,2.057a2.529,2.529,0,0,0,1.386-1.455,10.507,10.507,0,0,0,.368-1.053c.27-1.039.525-2.081.773-3.131a2.736,2.736,0,0,1,.673-1.253c.145-.151.3-.3.44-.458a3.136,3.136,0,0,0,.859-2.027,7.551,7.551,0,0,0,.074-1.45,5.167,5.167,0,0,0-.476-1.214,5.922,5.922,0,0,1-.264-.607,4.466,4.466,0,0,1-.226-2.87,1.137,1.137,0,0,0,0-.482.49.49,0,0,1,.267-.533,1.765,1.765,0,0,0,.778-.77,2.152,2.152,0,0,1,.587-.743,13.542,13.542,0,0,0,1.63-1.516,2.967,2.967,0,0,1,2.767-.922c.385.089.478.023.558-.35a.941.941,0,0,1,.367-.681,1.977,1.977,0,0,0,.976-1.015.542.542,0,0,1,.374-.257c.368-.07.746-.085,1.119-.124a3.788,3.788,0,0,0,2.539-.086,12.736,12.736,0,0,1,1.284-.147.417.417,0,0,0,.431-.382,1.492,1.492,0,0,1,.758-1.17c.27-.171.552-.327.823-.5a.723.723,0,0,0,.356-.673c-.006-.218-.031-.435-.02-.653a3.225,3.225,0,0,1,.794-2.373,1.882,1.882,0,0,0,.375-.692,15.691,15.691,0,0,1,.857-2.411,1.884,1.884,0,0,0,.1-.949c-.006-.268-.121-.537-.14-.805a3.823,3.823,0,0,1,.534-2.485,1.854,1.854,0,0,0,.336-1.525,3.838,3.838,0,0,1,.114-2.081,5.7,5.7,0,0,0-.024-3.208c-.053-.214-.13-.42-.178-.634a3.788,3.788,0,0,1-.144-.8,15.23,15.23,0,0,0-.266-2.758,2.83,2.83,0,0,1,.112-1.447,1,1,0,0,1,.648-.672.731.731,0,0,1,.155-.043,1.629,1.629,0,0,0,1.372-1.214,12.589,12.589,0,0,0,.761-1.948,16.593,16.593,0,0,1,.707-1.789,1.959,1.959,0,0,1,.778-1,5.491,5.491,0,0,0,1.323-1.182,7.983,7.983,0,0,0,.805-1.381,9.642,9.642,0,0,1,1.036-1.427,2.7,2.7,0,0,0,.2-.439,6.351,6.351,0,0,0,.631-2.649,25.81,25.81,0,0,0,.022-2.594A17.714,17.714,0,0,0,278.162,249.358Zm-60.571-148.7a1.39,1.39,0,0,1,.929.394.268.268,0,0,1,.027.269.356.356,0,0,1-.254.168.945.945,0,0,1-.89-.635C217.389,100.8,217.524,100.723,217.591,100.656Zm27.412.115a.646.646,0,0,1,.411-.128.022.022,0,0,1,.017.006,1.482,1.482,0,0,1,.139.231.511.511,0,0,1-.3.327c-.023.008-.044.014-.068.02s-.054.011-.084.015-.133-.045-.134-.07C244.974,101.036,244.93,100.861,245,100.771ZM229.82,44.1a1.976,1.976,0,0,1,.68-1.078.73.73,0,0,1,.669-.079,6.964,6.964,0,0,0,1.38.8.516.516,0,0,1,.308.549.618.618,0,0,1-.559.525c-.356.014-.716,0-1.283,0-.03,0-.267.028-.506.027C230.018,44.847,229.716,44.506,229.82,44.1ZM209.186,32.6c.137.029.249.177.346.252-.038.246-.3.451-.492.381a.606.606,0,0,1-.331-.319C208.658,32.739,208.943,32.544,209.186,32.6Zm-25.394,4.957a1.542,1.542,0,0,0,1.52-.127,12.521,12.521,0,0,1,1.267-.557c.667-.281.69-.334.45-.963a5.374,5.374,0,0,1-.252-.784c-.116-.539.22-.808.808-.674.118.027.231.078.349.109a.456.456,0,0,0,.588-.22.723.723,0,0,1,.615-.495,1.236,1.236,0,0,1,1.01.32.7.7,0,0,1,.23.42.953.953,0,0,1-.677,1c-.8.308-.827.5-.31,1.2.111.15.2.258.031.377-.372.256-.752.5-1.126.751a5.762,5.762,0,0,1-1.9.805c-.155.036-1.313.589-1.476.675a.354.354,0,0,1-.069.027l-.025.006-.054.009-.06.008a.16.16,0,0,0-.023,0l-.079.008a1.992,1.992,0,0,1-.141-.372.5.5,0,0,1-.006-.051c-.028-.5-.171-.862-.866-.8-.071,0-.245-.231-.271-.364A.331.331,0,0,1,183.792,37.554Zm-.8,3.009c.43-.467.791-1.012,1.579-1.064-.013.091-.024.181-.036.272-.048.371-.094.743-.162,1.11-.082.444-.39.526-.943.274a3.567,3.567,0,0,1-.318-.167C182.963,40.9,182.894,40.666,182.99,40.563ZM152.073,25.512a.437.437,0,0,1-.477-.1.33.33,0,0,1-.066-.42.777.777,0,0,1,.721-.374c.1,0,.257.173.258.323A.536.536,0,0,1,152.073,25.512ZM171.1,109.129c-.546.273-.982.7-1.561.945a2.82,2.82,0,0,0-1.616,1.554,1.965,1.965,0,0,1-.422.68,3.842,3.842,0,0,0-.886,2.2,8.155,8.155,0,0,0-.181,1.605,3.347,3.347,0,0,1-.773,2.074,7.656,7.656,0,0,1-2.169,1.954.692.692,0,0,1-.91-.269,1.258,1.258,0,0,1-.239-.948c.227-.992.471-1.98.719-2.967a2.3,2.3,0,0,1,.238-.6c.649-1.112,1.309-2.217,1.968-3.324a10.232,10.232,0,0,0,.661-1.1,1.479,1.479,0,0,1,.677-.672.389.389,0,0,0,.169-.558c-.173-.255-.311-.453-.092-.714.241-.288.457-.6.685-.9a.929.929,0,0,1,.738-.351,6.014,6.014,0,0,0,1.835-.449,16.066,16.066,0,0,1,2-.475c.147-.033.512.272.5.1.032.367.057.431.037.47C172.11,108.038,171.867,108.748,171.1,109.129Zm11.254,8.159c-.013.045-.08.073-.128.1a9.6,9.6,0,0,1-3.278,1.657c-1,.592-2.255.763-3.15,1.528a1.079,1.079,0,0,1-.811.172,2.775,2.775,0,0,0-.853.12,1.539,1.539,0,0,1-1.569-.591.486.486,0,0,1-.136-.6.938.938,0,0,1,.476-.405,3.334,3.334,0,0,1,.813-.018,1.573,1.573,0,0,0,1.31-.371c.728-.494,1.537-.892,2.308-1.339a1.2,1.2,0,0,1,1-.14,2.406,2.406,0,0,0,2-.274,3.224,3.224,0,0,1,1.642-.45.653.653,0,0,1,.455.184C182.5,116.96,182.4,117.146,182.35,117.288Zm2.079-3.78c1.02-.191,2.078-.254,3.119-.369a.293.293,0,0,1,.174.02c.708.494,1.032.023,1.4-.371a1.333,1.333,0,0,1,.446-.228.738.738,0,0,1,.809.166.635.635,0,0,1,.052.621,3.09,3.09,0,0,1-1.937,1.688,3.188,3.188,0,0,1-.891.12,6.281,6.281,0,0,1-1.194-.206c-.687-.151-.591-.147-.7-.16a3.808,3.808,0,0,0-1.7.231,8.046,8.046,0,0,1-.972.316.588.588,0,0,1-.465-.151.5.5,0,0,1-.033-.452A2.446,2.446,0,0,1,184.429,113.508Zm-6.818-6.748c.062-.1.26-.138.411-.155.052-.005.168.125.2.207.056.167-.226.369-.489.311C177.69,107.015,177.563,106.838,177.611,106.76Zm-1.421-.3c.231,0,.532.171.515.37-.031.395.11.588.54.719a7.882,7.882,0,0,1,.943.5,3.349,3.349,0,0,0,.685.208c.486.107.8-.083.982-.627.071-.206.105-.46.355-.5a1.721,1.721,0,0,1,2.053.947,10.557,10.557,0,0,0,.466,1.254,1.029,1.029,0,0,1-.161,1.215c-.18.2-.294.452-.467.659a.352.352,0,0,1-.3.057,2.229,2.229,0,0,1-1.616-1.462c-.023-.07-.185-.124-.291-.163-.128-.048-.212.013-.237.149a.621.621,0,0,0-.026.158,2.054,2.054,0,0,1-.676,1.754,6.357,6.357,0,0,0-1.567,2.6,1.831,1.831,0,0,1-1.1,1.14c-.2.075-.539-.076-.561-.263,0-.019,0-.038-.007-.053-.013-.656-.007-1.2-.047-1.739a.6.6,0,0,0-.347-.549.7.7,0,0,0-.668.039c-.376.231-.721.5-1.1.733-.051.033-.2-.051-.3-.1-.021-.009-.019-.106,0-.15a.638.638,0,0,1,.161-.264c.174-.131.372-.234.562-.35a2.485,2.485,0,0,0,1.127-1.531,12.287,12.287,0,0,0,.287-1.747.847.847,0,0,0-.453-.851c-.458-.276-.926-.541-1.375-.831a.353.353,0,0,1-.095-.293.332.332,0,0,1,.175-.233,1.376,1.376,0,0,1,.5-.1,1.5,1.5,0,0,0,1.073-.433A1.332,1.332,0,0,1,176.19,106.457ZM165.86,35.264a3.216,3.216,0,0,1,.547-.365c.143-.076.325-.172.489-.032a.766.766,0,0,1,.263.392.415.415,0,0,1-.3.5,2.333,2.333,0,0,1-.457.054,1.823,1.823,0,0,1-.415-.066.394.394,0,0,1-.218-.2A.312.312,0,0,1,165.86,35.264Zm-2.911.986c.081-.025.207.053.372.1a1.826,1.826,0,0,1-.243.344.17.17,0,0,1-.287-.079A.251.251,0,0,1,162.949,36.25Zm-4,67.75a15.4,15.4,0,0,1,2.678-1.916c.4-.192.817-.372,1.233-.548.729-.308,1.471-.595,2.192-.917a1.611,1.611,0,0,0,.676-.467,3.338,3.338,0,0,1,2.305-1.221,3.568,3.568,0,0,0,.983-.284,2.709,2.709,0,0,1,2.052-.139c.234.059.466.125.693.2a1.006,1.006,0,0,1,.773,1.012,1.641,1.641,0,0,1,0,.231c.022.258.028.421.051.584a.724.724,0,0,0,.573.583c.234.056.474.071.706.126.109.027.27.087.3.164.2.457.371.924.551,1.386-.455.707-.178,1.6-.53,2.331a.407.407,0,0,1-.452.11,2.431,2.431,0,0,1-.4-.335.831.831,0,0,0-.795-.286c-.855.133-1.656.43-2.524.517-.348.036-.686.123-1.035.133a1.47,1.47,0,0,1-1.155-.4,2.37,2.37,0,0,0-1.2-.707c-.139-.035-.164-.3-.047-.421.267-.271.548-.53.8-.811a.275.275,0,0,0-.007-.282.428.428,0,0,0-.3-.145,1.243,1.243,0,0,0-1.081.4c-.328.5-.963.539-1.422.833a3.58,3.58,0,0,1-1.405.56,6.894,6.894,0,0,0-1.449.491.953.953,0,0,1-1-.092,2.13,2.13,0,0,0-1.642-.436c-.037,0-.107-.055-.127-.1S158.915,104.025,158.945,104ZM91.589,98.58a5.75,5.75,0,0,0-.4,2c-.01.1-.094.183-.144.277a.323.323,0,0,1-.438.075c-.252-.244-.425-.568-.826-.651-.222-.046-.321-.234-.25-.368a2.961,2.961,0,0,0,.176-1.241,1.917,1.917,0,0,0-.918-2.033.533.533,0,0,1-.217-.267,3.239,3.239,0,0,1-.211-2.064c.014-.035.095-.058.149-.063a.188.188,0,0,1,.134.056,1.942,1.942,0,0,1,.53,1.07,1.9,1.9,0,0,0-.093.444c0,.071.11.18.2.229.262.148.615-.4.845.18a1.28,1.28,0,0,0,.671.56.587.587,0,0,1,.252.235c.187.41.358.825.52,1.241A.456.456,0,0,1,91.589,98.58Zm64.945,107.406a1.834,1.834,0,0,1-1.583-1.108c-.138-.3-.354-.587-.28-.918a.67.67,0,0,1,.246-.35.357.357,0,0,1,.311.023,5.048,5.048,0,0,1,1.412,1.214,3,3,0,0,1,.285.583C156.954,205.788,156.715,206.01,156.534,205.986Zm33.313,4.784a.6.6,0,0,1-.876-.074c-1.05-1.641-1.251-1.264-.008-3.08.082-.121.185-.132.25-.028.321.522.64,1.047.942,1.576a1.817,1.817,0,0,1,.134.42A1.382,1.382,0,0,1,189.847,210.77Z"/>
  <path class="bb832da2-1559-419b-b4d3-84de08b6401c" d="M156.351,13.269a16.524,16.524,0,0,1,2,.026,10.551,10.551,0,0,1,1.25.2,1.392,1.392,0,0,1,1.079.83.9.9,0,0,0,.45.292,9.173,9.173,0,0,0,.9.22.666.666,0,0,1,.5.453,5.7,5.7,0,0,0,.239.63.415.415,0,0,0,.274.2,13.153,13.153,0,0,1,2.194.315c.924.076.925.088,1.136.764.083.266.161.535.246.8a.841.841,0,0,0,.668.536,1.55,1.55,0,0,0,.543.086,16.382,16.382,0,0,0,3.713-.63,19.633,19.633,0,0,1,4.116-1.124,5.49,5.49,0,0,1,3.035-.181c.244.026.486.107.731.139a3.821,3.821,0,0,0,1.8-.159,6.062,6.062,0,0,0,2.486-1.181,1.046,1.046,0,0,1,.313-.149.515.515,0,0,1,.479.147,2.021,2.021,0,0,1,.166.3,1.036,1.036,0,0,0,1.384.492,2.134,2.134,0,0,0,.613-.311.494.494,0,0,0,.161-.586.5.5,0,0,0-.526-.38,3.47,3.47,0,0,1-.554-.051c-.293-.048-.474-.227-.442-.439.04-.266.111-.527.141-.795.056-.5-.306-.853-.892-.827a4.673,4.673,0,0,0-1.056.185,2.342,2.342,0,0,1-.862.194c-.24-.015-.5-.191-.523-.392a1.625,1.625,0,0,1,.174-1.1,3.838,3.838,0,0,0,.342-.551.534.534,0,0,0-.178-.6.832.832,0,0,0-.687-.2,1.381,1.381,0,0,0-.5.159,4.591,4.591,0,0,1-2.27.858c-.121,0-.3.2-.327.335a5.087,5.087,0,0,1-.468,1.537c-.174.329.127.777-.243,1.066-.436.342-.944,0-1.41.037-.245.014-.49.022-.733.044-.78.075-.916.07-1.253-.688-.137-.309-.184-.644-.32-.952a.866.866,0,0,0-.709-.5c-.244-.032-.491-.02-.738-.036a.725.725,0,0,1-.638-.294,1.569,1.569,0,0,0-1.327-.82.534.534,0,0,1-.342-.806,1.358,1.358,0,0,1,.905-.7.986.986,0,0,0,.727-.642c.123-.377.012-.782-.62-.757a2.2,2.2,0,0,0-1.351.363,1.184,1.184,0,0,1-1.023.18,6.782,6.782,0,0,0-3.583.338c-1.111.378-2.192.82-3.332,1.152-.281.081-.52.252-.8.347a10.963,10.963,0,0,1-3.573,1.026,5.661,5.661,0,0,0-.864.217,1.04,1.04,0,0,0-.916,1.033C156.053,13.02,156.276,13.276,156.351,13.269Zm12.375,2.868a.589.589,0,0,1-.45.557.66.66,0,0,1-.5-.4c-.063-.247.146-.484.458-.518A.465.465,0,0,1,168.726,16.137Zm-.648-4.663a.641.641,0,0,1,.5.439c.028.186-.2.384-.45.392s-.5-.2-.486-.4A.542.542,0,0,1,168.078,11.474Zm-3.588.241a.134.134,0,0,1,.047-.048,1.082,1.082,0,0,1,.186-.069c.023-.007.043-.015.064-.023a1.428,1.428,0,0,1,.312.171,3.323,3.323,0,0,0,.648.589c.583.352.562.854,0,1.124a1.57,1.57,0,0,1-.514.125c-.1.01-.276-.028-.309-.087a7.252,7.252,0,0,1-.595-1.193C164.27,12.128,164.4,11.9,164.49,11.715Z"/>
  <path class="bb832da2-1559-419b-b4d3-84de08b6401c" d="M186.546,21.493c-.064.472.326.669.686.906a.41.41,0,0,1,.093.686,7.158,7.158,0,0,1-.719.461,1.406,1.406,0,0,1-1.04.165,1.135,1.135,0,0,1-.912-.768.507.507,0,0,0-.1-.137.525.525,0,0,0-.652-.144c-.413.208-.829.411-1.229.638a.835.835,0,0,0-.211,1.289,2.826,2.826,0,0,0,1.249,1.012,2.379,2.379,0,0,1,1.428,1.473,2.822,2.822,0,0,1,.334,1.106.528.528,0,0,0,.488.434,2.652,2.652,0,0,0,2-.555,2.075,2.075,0,0,1,.938-.39c.472-.087.921-.248,1.391-.338a3.613,3.613,0,0,0,1.668-.876c.5-.427.752-1.059,1.384-1.4.132-.071.186-.266.255-.411.186-.391.338-.8.542-1.178a1.255,1.255,0,0,0-.026-1.4.4.4,0,0,1,.124-.576A5.8,5.8,0,0,0,195,20.84a.487.487,0,0,0,.026-.609,1.293,1.293,0,0,0-1.112-.793,3.682,3.682,0,0,1-.553-.06,1.314,1.314,0,0,0-1.024.215,6.285,6.285,0,0,1-.708.474.74.74,0,0,1-.51-.007,1.566,1.566,0,0,0-.892-.154c-.928.181-1.96.125-2.669.8a.886.886,0,0,1-.32.135C186.888,20.962,186.6,21.118,186.546,21.493Zm6.237,1.177c.02-.028.1-.02.154-.029a1.19,1.19,0,0,1,.212.172l.015.029a1.663,1.663,0,0,1,.084.453.193.193,0,0,1-.059.128c-.091-.021-.208-.037-.257-.095a1.335,1.335,0,0,1-.264-.41C192.643,22.848,192.728,22.746,192.783,22.67Z"/>
  <path class="bb832da2-1559-419b-b4d3-84de08b6401c" d="M194.386,6.185a1.415,1.415,0,0,0,.892.165,12.942,12.942,0,0,1,3.494.134,1.255,1.255,0,0,1,.924.524,1.432,1.432,0,0,0,.806.684,2.616,2.616,0,0,0,1.941-.2.887.887,0,0,0,.371-.512c.11-.413.134-.847.225-1.265.179-.829.056-1.054-.758-1.477a2.549,2.549,0,0,0-1.416-.374,1.162,1.162,0,0,1-1.133-.446,1.183,1.183,0,0,0-.934-.5c-.49-.032-.98-.094-1.289-.125-.678.056-1.169.084-1.656.141a2.032,2.032,0,0,0-.5.179.41.41,0,0,0-.152.568c.238.26.511.5.737.765a.688.688,0,0,1,.176.445c-.01.189-.232.246-.413.191a2.716,2.716,0,0,0-1.272.079.5.5,0,0,0-.4.471A.612.612,0,0,0,194.386,6.185Z"/>
  <path class="bb832da2-1559-419b-b4d3-84de08b6401c" d="M177.989,8.957a3.181,3.181,0,0,0,.733.034,2.3,2.3,0,0,1,1.3-.006c.2-.017.437-.05.68-.054,1.041-.023,1.918-.256,2.307-1.192a.631.631,0,0,1,.579-.311A1.245,1.245,0,0,0,184.8,6.65c.1-.267.4-.353.711-.411a4,4,0,0,0,.842-.251.674.674,0,0,0,.147-.879,1.929,1.929,0,0,0-1.665-.535,30.348,30.348,0,0,1-4.247.772c-.4.054-.7.233-.745.58-.074.633-.506.918-1.146,1.043-.177.034-.364.036-.538.079a1.087,1.087,0,0,0-.883,1.215A.85.85,0,0,0,177.989,8.957Z"/>
  <path class="bb832da2-1559-419b-b4d3-84de08b6401c" d="M179.915,182.3a2.2,2.2,0,0,0,.847.04c.671-.089,1.336-.212,2-.337a.852.852,0,0,0,.639-.459.479.479,0,0,0-.038-.443,4.075,4.075,0,0,0-2.249-1.217.9.9,0,0,1-.882-.683.667.667,0,0,0-.535-.388,8.109,8.109,0,0,0-1.178-.263,2.529,2.529,0,0,1-1.123-.448c-.833-.532-1.644-1.1-2.472-1.633a1.744,1.744,0,0,1-.8-1.058c-.133-.479-.3-.486-.884-.219a1.356,1.356,0,0,1-.627.166,2.23,2.23,0,0,1-1.563-.67,2.43,2.43,0,0,0-.809-.65,9.305,9.305,0,0,0-1.987-.6c-.967-.154-1.946-.18-2.92-.261,0-.025,0-.047,0-.072a5.96,5.96,0,0,0-.844.08q-1.8.43-3.585.9a3.555,3.555,0,0,0-1.258.741,1.717,1.717,0,0,0-.564,1.737.563.563,0,0,0,.689.347,6.685,6.685,0,0,1,2.051-1c.243-.059.423-.322.607-.513a2.7,2.7,0,0,1,1.471-.691.746.746,0,0,1,.913.564.957.957,0,0,0,.83.763c.805.1,1.579.351,2.368.508a4.842,4.842,0,0,1,1.122.421c.992.462,1.964,1.083,3.121.857a.364.364,0,0,1,.169.014.731.731,0,0,1,.547.379c.113.257.2.521.311.779a1.759,1.759,0,0,0,1.559,1.188,4.858,4.858,0,0,1,.855.114.638.638,0,0,1,.36.337.513.513,0,0,1-.069.445c-.273.323-.71.506-.879.918a.411.411,0,0,0,.014.3c.041.08.169.187.243.182.675-.045,1.357-.073,2.017-.183A5.746,5.746,0,0,1,179.915,182.3Z"/>
  <path class="bb832da2-1559-419b-b4d3-84de08b6401c" d="M189.714,14.477a.845.845,0,0,0,.926.425,4.929,4.929,0,0,1,1.834.148c.087.028.15.163.2.259.024.041,0,.108-.017.157a2.522,2.522,0,0,0-.135.29.587.587,0,0,0,.535.721c.671.058,1.3-.284,2-.016a1.963,1.963,0,0,0,.5.07l.413-.039a2.019,2.019,0,0,0,1.773-.92,1.577,1.577,0,0,1,.783-.616,6.251,6.251,0,0,0,.97-.674c.11-.671.71-1.085,1.01-1.654a1.525,1.525,0,0,0,.068-.791.892.892,0,0,0-.919-.691,8.922,8.922,0,0,1-1.077.14,8.274,8.274,0,0,1-2.178-.3.84.84,0,0,0-.976.522c-.063.315-.08.641-.144.955a.358.358,0,0,1-.28.041c-.286-.221-.54-.474-.824-.7a.821.821,0,0,0-.865-.01,1.309,1.309,0,0,0-.482.441,5.486,5.486,0,0,0-.26.927c-.077.282-.28.439-.473.381a.684.684,0,0,1-.47-.478,2.708,2.708,0,0,1-.129-.648,1.55,1.55,0,0,0-.928-1.2c-.45-.274-1.094-.236-1.288.151a4.134,4.134,0,0,1-.74,1.061.834.834,0,0,0,.131,1.067C188.987,13.856,189.508,14.033,189.714,14.477Z"/>
  <path class="bb832da2-1559-419b-b4d3-84de08b6401c" d="M206.117,7.978c.247.147.388.436.6.644a1.069,1.069,0,0,0,1,.342,14.814,14.814,0,0,1,2.724-.188c.243-.013.489-.015.729-.041a.687.687,0,0,0,.552-.715c-.049-.276-.271-.437-.659-.448-.059,0-.118.032-.178.027-.415-.024-.631-.144-.736-.4a.623.623,0,0,1,.148-.745c.118-.115.286-.19.407-.3a.359.359,0,0,0-.158-.552,4.545,4.545,0,0,1-1.834-.78,3.2,3.2,0,0,0-1.389-.443,1.518,1.518,0,0,0-1.436.5,2.024,2.024,0,0,0-.49,1.633A1.475,1.475,0,0,0,206.117,7.978Z"/>
  <path class="bb832da2-1559-419b-b4d3-84de08b6401c" d="M220.6,41.659a8.076,8.076,0,0,0,2.978-.524,1.115,1.115,0,0,0,.522-.409c.193-.263.316-.567.483-.849a.584.584,0,0,1,.633-.174,7.228,7.228,0,0,0,.838.348,1.487,1.487,0,0,0,1.474-.361.423.423,0,0,0-.007-.587,2.355,2.355,0,0,0-.965-.471,2.75,2.75,0,0,1-1.867-.582.315.315,0,0,0-.172-.058,4.252,4.252,0,0,0-1.98.038,5.885,5.885,0,0,0-2.466,1.5,1.585,1.585,0,0,0-.436,1.3C219.669,41.381,219.984,41.619,220.6,41.659Z"/>
  <path class="bb832da2-1559-419b-b4d3-84de08b6401c" d="M47.636,68.686a1.4,1.4,0,0,0-.691.03,7.767,7.767,0,0,0-1.49,1.011,2.588,2.588,0,0,1-1,.561c-.489.148-1.057.145-1.414.517-.394.413-1.03.112-1.506.278a1.024,1.024,0,0,0-.164.047,2.883,2.883,0,0,0-1.24,1.228,1.035,1.035,0,0,0,.249,1.091,1.371,1.371,0,0,0,.4.244,2.184,2.184,0,0,0,.25.01c.773-.071,1.243-.732,2.083-.69.094.006.18-.111.263-.18a.506.506,0,0,0,.1-.121,1.035,1.035,0,0,1,.694-.408c.4-.083.779-.206,1.178-.283a1.189,1.189,0,0,0,.793-.542,2.921,2.921,0,0,0,.362-.7,2.5,2.5,0,0,1,.879-1.117,3.6,3.6,0,0,0,.531-.377.557.557,0,0,0,.035-.446C47.936,68.776,47.744,68.693,47.636,68.686Z"/>
  <path class="bb832da2-1559-419b-b4d3-84de08b6401c" d="M78.446,87.92a.592.592,0,0,0,.217.271.934.934,0,0,0,.328.115c.018,0,.074-.086.071-.135-.031-.376-.07-.754-.109-1.131a.754.754,0,0,1,.256-.724,1.46,1.46,0,0,0,.639-1.227,1.046,1.046,0,0,1,.3-.552c.29-.38.612-.739.905-1.121a.955.955,0,0,0,.185-.428.343.343,0,0,0-.163-.276,4.185,4.185,0,0,0-1.926-.266.937.937,0,0,0-.569.305,3.143,3.143,0,0,0-.439.835c-.3.81.032,1.734-.2,2.491C78.117,86.735,78.272,87.329,78.446,87.92Z"/>
  <path class="bb832da2-1559-419b-b4d3-84de08b6401c" d="M177.891,186.993a6.245,6.245,0,0,0-3.265-.935,9.5,9.5,0,0,0-.981.155.8.8,0,0,0-.349.3c-.088.112.038.444.2.579.268.216.534.435.813.635a2.007,2.007,0,0,0,1.284.419c.777-.052,1.545-.15,2.315-.242.239-.029.359-.458.2-.666A.866.866,0,0,0,177.891,186.993Z"/>
  <path class="bb832da2-1559-419b-b4d3-84de08b6401c" d="M202,55.954a2.66,2.66,0,0,0,.386-.314.509.509,0,0,0-.015-.606c-.122-.11-.321-.259-.447-.24a19.62,19.62,0,0,0-2.6.485,2.052,2.052,0,0,0-1.364,1.348.817.817,0,0,0-.007.32.378.378,0,0,0,.291.376,6.292,6.292,0,0,0,.757.063,1.767,1.767,0,0,0,1.26-.381C200.809,56.621,201.424,56.307,202,55.954Z"/>
  <path class="bb832da2-1559-419b-b4d3-84de08b6401c" d="M227.43,97.72a.449.449,0,0,0,.392-.695,2,2,0,0,0-.875-.813,8.878,8.878,0,0,1-1.132-.5,4.833,4.833,0,0,0-2.446-.636c-.25-.026-.471.023-.473.241a.439.439,0,0,0,.1.292c.373.361.755.716,1.149,1.057a2.538,2.538,0,0,0,.7.5A7.028,7.028,0,0,0,227.43,97.72Z"/>
  <path class="bb832da2-1559-419b-b4d3-84de08b6401c" d="M183.338,186.985a1.261,1.261,0,0,0,1.144.1,1.608,1.608,0,0,1,.65-.113c.91,0,1.822.016,2.732.032a1.269,1.269,0,0,1,.506.07,3.268,3.268,0,0,1,.718.455c.121.1.148.3.245.438a.579.579,0,0,0,.977.09c.2-.308.352-.653.557-.961a.713.713,0,0,1,.863-.33,1.732,1.732,0,0,0,1.474-.023,3.473,3.473,0,0,1,2.949-.124.719.719,0,0,0,.335.034.914.914,0,0,0,.784-.512.633.633,0,0,0,.06-.231,1.561,1.561,0,0,0,.693-.484.56.56,0,0,0-.332-.9c-.781-.132-1.565-.254-2.35-.346a.905.905,0,0,0-.317.033,3.626,3.626,0,0,1-.884-.7,5.927,5.927,0,0,0-2.24-1.266.955.955,0,0,0-.5-.082,9.471,9.471,0,0,0-2.351.232,1.8,1.8,0,0,1-1.172.008c-.278-.076-.55-.184-.827-.261a1.713,1.713,0,0,0-1.44.236.336.336,0,0,0-.042.547c.047.031.088.083.14.1a1.261,1.261,0,0,1,1.054,1.177,3.026,3.026,0,0,0,.422,1.249c.1.174-.067.433-.265.5a4.018,4.018,0,0,1-2.184.024c-.389-.079-.777-.178-.905-.207-.619,0-.96.012-1.139.348C182.556,186.366,182.83,186.736,183.338,186.985Z"/>
  <path class="bb832da2-1559-419b-b4d3-84de08b6401c" d="M223.671,105.558a6.858,6.858,0,0,1-2.252-.353c-.134-.022-.28-.193-.361-.324-.116-.189-.161-.41-.267-.606a.345.345,0,0,0-.453-.114.655.655,0,0,0-.36,1.04,3.519,3.519,0,0,0,1.639,1.247,3.354,3.354,0,0,1,1.187.7c.072.062.212.058.358.094a1.335,1.335,0,0,0,.4-.232c.2-.247.359-.53.545-.79.118-.164.449-.246.333-.492C224.281,105.392,223.911,105.519,223.671,105.558Z"/>
  <path class="bb832da2-1559-419b-b4d3-84de08b6401c" d="M14.891,79.5c.016,0-.281.014-.569.055a4.895,4.895,0,0,0-1.36.246,3.576,3.576,0,0,0-1.591,1.085.529.529,0,0,0-.1.3.451.451,0,0,0,.13.289.487.487,0,0,0,.328.117,2.123,2.123,0,0,0,.627-.215,2.958,2.958,0,0,1,1.959-.484,1.3,1.3,0,0,0,.352-.026.743.743,0,0,0,.638-.447c.08-.192.154-.388.222-.586C15.577,79.7,15.374,79.5,14.891,79.5Z"/>
  <path class="bb832da2-1559-419b-b4d3-84de08b6401c" d="M206.349,56.522a1.07,1.07,0,0,0-.518.07,11.483,11.483,0,0,0-1.28,1.041c-.136.132-.121.394-.155.531.064.239.1.4.152.556a.581.581,0,0,0,.858.284,7.1,7.1,0,0,0,1.016-.852,3.5,3.5,0,0,0,.539-.97C207.081,56.9,206.71,56.514,206.349,56.522Z"/>
  <path class="bb832da2-1559-419b-b4d3-84de08b6401c" d="M199.109,75.233a.962.962,0,0,0-1.281-.178c-.419.273-.835.554-1.232.853a.607.607,0,0,0-.265.709c.074.218.633.315.971.176.107-.043.21-.092.31-.144q.827-.427,1.645-.863a.231.231,0,0,0,.075-.055.107.107,0,0,0,.017-.024.168.168,0,0,0-.042-.2c-.05-.071-.089-.15-.14-.216A.685.685,0,0,0,199.109,75.233Z"/>
  <path class="bb832da2-1559-419b-b4d3-84de08b6401c" d="M214.4,206.348a.883.883,0,0,0-1.017.576c-.092.357-.177.715-.263,1.073-.011.05-.008.1-.016.155a.387.387,0,0,0,.276.35c1.173.137,1.516-.346,1.422-1.193-.05-.261-.083-.526-.158-.782A.348.348,0,0,0,214.4,206.348Z"/>
  <path class="bb832da2-1559-419b-b4d3-84de08b6401c" d="M190.541,9.8c.486.041.855-.331.812-.995-.064-.156-.17-.469-.321-.766a.735.735,0,0,0-.622-.314.516.516,0,0,0-.575.284,3.015,3.015,0,0,0-.246.911C189.566,9.347,190.049,9.757,190.541,9.8Z"/>
  <path class="bb832da2-1559-419b-b4d3-84de08b6401c" d="M6.078,82.944l-.484-.115a1.94,1.94,0,0,0-.672.205,6.757,6.757,0,0,0-.9.885c-.066.071-.064.2-.1.293-.042.131.012.209.166.261a1.081,1.081,0,0,0,1-.111,14.739,14.739,0,0,0,1.2-1.034C6.378,83.249,6.222,82.976,6.078,82.944Z"/>
  <path class="bb832da2-1559-419b-b4d3-84de08b6401c" d="M207.484,1.71a.686.686,0,0,0,.834.076A.784.784,0,0,0,208.6,1.6a1.747,1.747,0,0,0,.281-.543c.041-.16-.21-.349-.506-.415s-.6-.117-.732-.141c-.511.007-.818.456-.637.706A2.836,2.836,0,0,0,207.484,1.71Z"/>
  <path class="bb832da2-1559-419b-b4d3-84de08b6401c" d="M211.381,53.247a1.673,1.673,0,0,0-.188,0c-.108.02-.226.04-.341.064a.466.466,0,0,0-.334.5.726.726,0,0,0,.512.631.865.865,0,0,0,.972-.183.472.472,0,0,0,.113-.59A.8.8,0,0,0,211.381,53.247Z"/>
  <path class="bb832da2-1559-419b-b4d3-84de08b6401c" d="M2.83,84.521c-.282-.086-.578-.119-.858-.212-.722-.242-1.06-.168-1.442.381a.3.3,0,0,0,.015.286.424.424,0,0,0,.3.144A3.073,3.073,0,0,1,2.5,85.067a1.51,1.51,0,0,0,.37-.092.322.322,0,0,0,.156-.236A.349.349,0,0,0,2.83,84.521Z"/>
  <path class="bb832da2-1559-419b-b4d3-84de08b6401c" d="M235.062,58.477a6.576,6.576,0,0,0-.583.323.445.445,0,0,0-.008.7.953.953,0,0,0,.774.329.518.518,0,0,0,.49-.362c.015-.1.018-.208.029-.34-.037-.127-.073-.286-.13-.435A.5.5,0,0,0,235.062,58.477Z"/>
  <path class="bb832da2-1559-419b-b4d3-84de08b6401c" d="M198.185,7.161a.322.322,0,0,0-.039-.025.287.287,0,0,0-.077-.037.349.349,0,0,0-.078-.016,4.818,4.818,0,0,0-1.545.2c-.124.032-.172.28-.087.418a.759.759,0,0,0,.717.421,10.51,10.51,0,0,0,1.161-.316.115.115,0,0,0,.049-.039,1.762,1.762,0,0,0,.1-.214.358.358,0,0,0-.08-.27.734.734,0,0,0-.073-.083C198.218,7.186,198.2,7.174,198.185,7.161Z"/>
  <path class="bb832da2-1559-419b-b4d3-84de08b6401c" d="M172.531,10.9A2.236,2.236,0,0,0,173,11a4.864,4.864,0,0,0,.589-.058c.177-.039.337-.148.3-.326a.6.6,0,0,0-.234-.4,2.247,2.247,0,0,0-.7-.178.511.511,0,0,0-.6.6A.348.348,0,0,0,172.531,10.9Z"/>
  <path class="bb832da2-1559-419b-b4d3-84de08b6401c" d="M226.586,62.9c-.031.19.24.46.426.406a2.006,2.006,0,0,0,.609-.252c.114-.082.134-.263.21-.427-.139-.116-.25-.277-.39-.31A.746.746,0,0,0,226.586,62.9Z"/>
  <path class="bb832da2-1559-419b-b4d3-84de08b6401c" d="M213.07,52.941a.664.664,0,0,0,.871.584c.132-.042.21-.2.289-.289a.763.763,0,0,0-.824-.589C213.21,52.66,213.066,52.765,213.07,52.941Z"/>
  <path class="bb832da2-1559-419b-b4d3-84de08b6401c" d="M80.594,80.359a.411.411,0,0,0,.244.2.266.266,0,0,0,.227-.163,4.464,4.464,0,0,0,.087-.753c.006-.145-.221-.342-.341-.3a.844.844,0,0,0-.35.257c-.055.069-.024.2-.033.319A2.643,2.643,0,0,0,80.594,80.359Z"/>
  <path class="bb832da2-1559-419b-b4d3-84de08b6401c" d="M220.746,371.4a.064.064,0,0,0-.014-.02.045.045,0,0,0-.019-.015,1.024,1.024,0,0,0-.45-.027c-.147.027-.192.276-.089.392a.47.47,0,0,0,.121.094.425.425,0,0,0,.181.042.383.383,0,0,0,.345-.221c-.023-.066-.039-.16-.064-.222A.081.081,0,0,0,220.746,371.4Z"/>
  <path class="bb832da2-1559-419b-b4d3-84de08b6401c" d="M177.6,35.9a.43.43,0,0,0,.426.425.442.442,0,0,0,.38-.436.326.326,0,0,0-.333-.317C177.789,35.544,177.6,35.674,177.6,35.9Z"/>
  <path class="bb832da2-1559-419b-b4d3-84de08b6401c" d="M168.305,37.435a.277.277,0,0,0,.356.248,1.873,1.873,0,0,0,.386-.29,2.093,2.093,0,0,0-.394-.322C168.437,36.976,168.266,37.165,168.305,37.435Z"/>
  <polygon class="bc940649-a49a-49a3-92d0-34c133f7a4cc" points="113.726 89.321 115.326 92.564 118.905 93.084 116.315 95.609 116.926 99.173 113.726 97.49 110.525 99.173 111.136 95.609 108.546 93.084 112.125 92.564 113.726 89.321"/>
  <text class="bac86586-98d5-4a40-aa0c-e19859fb539c" transform="translate(189.588 152.954)">Madison</text>
  <circle class="bc940649-a49a-49a3-92d0-34c133f7a4cc" cx="193.248" cy="120.22" r="2.5"/>
  <text class="bac86586-98d5-4a40-aa0c-e19859fb539c" transform="translate(196.211 132.458)">New York</text>
  <circle class="bc940649-a49a-49a3-92d0-34c133f7a4cc" cx="116.226" cy="180.716" r="2.5"/>
  <text class="bac86586-98d5-4a40-aa0c-e19859fb539c" transform="translate(32.632 190.456)">Guadalajara</text>
  <circle class="b0bd0c3f-2013-42c7-821e-a50dbaa3ecc8" cx="159.427" cy="209.22" r="2.5"/>
  <line class="b2ddff46-d02b-4329-81c4-df77cba52460" x1="139.094" y1="221.317" x2="155.792" y2="211.72"/>
  <text class="bac86586-98d5-4a40-aa0c-e19859fb539c" transform="translate(14.681 225.425)">San Jose, Costa Rica</text>
  <circle class="b0bd0c3f-2013-42c7-821e-a50dbaa3ecc8" cx="176.601" cy="234.923" r="2.5"/>
  <line class="b2ddff46-d02b-4329-81c4-df77cba52460" x1="155.792" y1="247.02" x2="172.489" y2="237.423"/>
  <text class="bac86586-98d5-4a40-aa0c-e19859fb539c" transform="translate(64.746 250.855)">Quito, Ecuador</text>
  <circle class="bc940649-a49a-49a3-92d0-34c133f7a4cc" cx="156.927" cy="119.607" r="2.5"/>
  <line class="b2ddff46-d02b-4329-81c4-df77cba52460" x1="77.936" y1="101.339" x2="107.111" y2="96.54"/>
  <text class="bac86586-98d5-4a40-aa0c-e19859fb539c" transform="translate(27.68 105.267)">Calgary</text>
  <line class="b2ddff46-d02b-4329-81c4-df77cba52460" x1="188.106" y1="146.55" x2="159.829" y2="122.298"/>
</svg>
