<svg id="Layer_1" data-name="Layer 1" xmlns="http://www.w3.org/2000/svg" viewBox="0 0 300 60"><defs><style>.cls-1{fill:#f05042;}</style></defs><path class="cls-1" d="M292,31c0-7.32-1.2-9.08-7.93-9.51-7.34-.47-24.35-.33-30-.09-1.2.09-1.77.48-1.82,1.55-.17,3.47-.17,8.22-.17,13.24s0,9.81.17,13.28c0,1.07,1,1.48,2.17,1.48H266.8c1.21,0,1.31-6.64,4.62-7.63,4.29-1.28,4.79,7.63,6.64,7.63h12.85c2.32,0-1.56-6.61-4.43-11.21S292,37.52,292,31Zm-16.85,3.12a1.58,1.58,0,0,1-1.58,1.58h-6.31a1.58,1.58,0,0,1-1.58-1.58V29.87a1.58,1.58,0,0,1,1.58-1.58h6.31a1.58,1.58,0,0,1,1.58,1.58Z"/><path class="cls-1" d="M205.1,43.09c.06.86.06,2.18.06,3s0,2.26-.06,3.11c0,1.06-.84,1.45-2,1.53-1.57.13-10.28.17-16.52.17-6.57,0-11.69,0-16.24-.13-1.4,0-1.91-.46-2.08-1.36a43.54,43.54,0,0,1-.17-5.37V41.39c1.46-1.08,5.76-4,9.56-6.54s3.71-4.58-.2-4.58a65,65,0,0,1-9-.46l-.05-1.07c-.06-.85-.06-2.09-.06-2.94s0-2.13.06-3c.05-1.07.84-1.45,2-1.53,1.58-.13,10.12-.17,16.24-.17,6.47,0,11.47,0,16,.12,1.41.05,1.91.47,2.08,1.37.06.64.17,2.13.17,5.36v2.69c-1.45,1.07-5.68,4-9.38,6.43s-3.5,4.47.47,4.47a64.5,64.5,0,0,1,9.14.47Z"/><path class="cls-1" d="M245.73,43.82c.05.85.05,1.7.05,2.64s0,1.92-.05,2.77c-.06,1.06-.79,1.45-2,1.53-1.69.13-12.53.17-15.51.17s-13,0-15.68-.17c-1.18-.08-1.74-.47-1.8-1.53-.16-3.45-.16-8.22-.16-13.21s0-9.75.16-13.2c.06-1.07.62-1.45,1.8-1.53,2.64-.17,12.59-.17,15.68-.17s13.82,0,15.51.17c1.18.08,1.91.46,2,1.53.05.85.05,1.83.05,2.77s0,1.79-.05,2.64l-.06.89c-.74.17-5,.3-9.52.3s-8.33,0-8.52.09-.33,1-.33,1.49a6.43,6.43,0,0,0,.08,1.15c.05.19,4,.34,8.2.34s8.23.06,9,.13l0,.72c.06.85.06,1.83.06,2.68s0,1.84-.06,2.69l0,.72c-.74.07-4.78.13-9,.13s-7.76,0-8,.08-.33,1-.33,1.5a6.43,6.43,0,0,0,.08,1.15c.05.18,4.27.34,8.77.34s8.78.13,9.52.29Z"/><path class="cls-1" d="M108.79,22.8c-.05-1.05-.62-1.43-1.8-1.52s-3.93-.17-6.74-.17H91.84c0,.92-.09,8.34-.18,16.48,0,0-.06,5.66-2.31,5.66S87,37.6,87,37.6C87,29.46,86.86,22,86.85,21.12h-8.4c-2.81,0-5.62.09-6.75.17s-1.74.47-1.8,1.52c-.16,3.54-.22,11-.22,15.35,0,10.72,2.7,12.78,19.67,12.78S109,48.87,109,38.15C109,33.77,109,26.34,108.79,22.8Z"/><path class="cls-1" d="M64.23,22.88c0-10.3-1.68-12.77-11.16-13.38C42.76,8.84,18.83,9,10.85,9.38c-1.69.12-2.49.67-2.57,2.17C8,16.43,8,23.12,8,30.17S8,44,8.28,48.85c.08,1.51,1.37,2.08,3.06,2.08H28.85c1.69,0,1.84-9.34,6.49-10.72,6-1.81,6.74,10.72,9.35,10.72H62.75c3.27,0-2.19-9.28-6.22-15.76S64.23,32.1,64.23,22.88ZM40.54,27.27a2.23,2.23,0,0,1-2.22,2.22H29.44a2.23,2.23,0,0,1-2.22-2.22V21.35a2.23,2.23,0,0,1,2.22-2.22h8.88a2.23,2.23,0,0,1,2.22,2.22Z"/><path class="cls-1" d="M161.6,23.2V46.91c0,4.08-3.3,3.91-8.24,3.91h-6.25a1.63,1.63,0,0,1-1.79-1.68c.63-4.11,1.28-8.22,1.92-12.33a24.27,24.27,0,0,1-5.32,7.1,23.85,23.85,0,0,1-4.37,3.19,24,24,0,0,1-9.69-10.29c.23,1.46.46,2.91.68,4.37.41,2.65.83,5.3,1.24,8A1.63,1.63,0,0,1,128,50.82h-6.25c-1,0-1.94,0-2.79,0a14.28,14.28,0,0,1-2.3-.2,4,4,0,0,1-2.28-1,3.66,3.66,0,0,1-.87-2.67V23.2c0-1.73.59-2,3.47-2h12.37c3.27,0,5,3.43,5.78,4.39a17.12,17.12,0,0,1,2.43,3.73A16.75,16.75,0,0,1,140,25.62c.82-1,2.5-4.39,5.77-4.39h12.38C161,21.23,161.6,21.47,161.6,23.2Z"/></svg>